<!-- Generator: Adobe Illustrator 22.0.1, SVG Export Plug-In  -->
<svg version="1.1"
	 xmlns="http://www.w3.org/2000/svg" xmlns:xlink="http://www.w3.org/1999/xlink" xmlns:a="http://ns.adobe.com/AdobeSVGViewerExtensions/3.0/"
	 x="0px" y="0px" width="846px" height="309.1px" viewBox="0 0 846 309.1"
	 style="overflow:scroll;enable-background:new 0 0 846 309.1;" xml:space="preserve">
<style type="text/css">
	.st0{fill:#1E120D;}
</style>
<defs>
</defs>
<g>
	<g>
		<path class="st0" d="M75.5,80.8l39.3,44.5H77.6l-37.8-43h-9v43H0V0h63.4c25.8,0,45,15.7,45,40.9C108.4,62.8,94.1,76.6,75.5,80.8z
			 M60,26.4H30.8v30.1H60c10.1,0,18.1-5.5,18.1-15.1C78.1,31.8,69.9,26.4,60,26.4z"/>
		<path class="st0" d="M166,128c-14.9,0-26.8-6-35-13.7c-8.3-8-14.6-20.5-14.6-36c0-23.7,13.5-39.2,30.7-46.1
			c6.1-2.4,12.5-3.6,19.1-3.6c22.7,0,37.6,12.8,44.4,29.3c2.6,6.2,3.9,13,4,20.4V86h-68.8c2.2,9.6,9.1,18.1,20.2,18.1
			c9.3,0,16-3.6,20-10.8l26.5,5.4C205.3,116.1,190.6,128,166,128z M166.2,52.9c-9.7,0-17.4,6.9-19.8,14.8H185
			C182.7,59.4,176.1,52.9,166.2,52.9z"/>
		<path class="st0" d="M325.1,46.8c5.8,7.4,9.9,19.3,9.9,31.5c0,15.2-5.9,27.9-13.6,36c-7.3,7.7-18.3,13.7-32.2,13.7
			c-11.8,0-21.6-3.4-29.2-10.3V157h-29.9V31.4H260v7.5c7.6-6.9,17.3-10.3,29.2-10.3C306.2,28.6,317.2,36.7,325.1,46.8z M283,102.6
			c13.4,0,22.6-10.3,22.6-24.3c0-13.4-8.9-24.3-22.6-24.3c-12.9,0-23,11-23,24.3C260,91.9,270,102.6,283,102.6z"/>
		<path class="st0" d="M414.4,75V31.4h29.9v93.8h-29.9v-9c-6.3,6.8-16.3,11.8-28.8,11.8c-17.8,0-29.1-9.9-33.8-23.2
			c-1.7-4.9-2.6-10.2-2.6-15.9V31.4h29.7v51.2c0,10,5.9,18.5,16.1,18.5C408.9,101.1,414.4,90.1,414.4,75z"/>
		<path class="st0" d="M509.4,128c-14.9,0-26.8-6-35-13.7c-8.3-8-14.6-20.5-14.6-36c0-23.7,13.5-39.2,30.7-46.1
			c6.1-2.4,12.5-3.6,19.1-3.6c22.7,0,37.6,12.8,44.4,29.3c2.6,6.2,3.9,13,4,20.4l0,7.7h-68.8c2.2,9.6,9.1,18.1,20.2,18.1
			c9.3,0,16-3.6,20-10.8l26.5,5.4C548.6,116.1,533.9,128,509.4,128z M509.5,52.9c-9.7,0-17.4,6.9-19.8,14.8h38.7
			C526,59.4,519.5,52.9,509.5,52.9z"/>
		<path class="st0" d="M609.7,28.6c21.7,0,38.7,9.7,42.6,26.9l-30-0.2c-2.9-3.3-7.3-5.4-13-5.4c-5.8,0-10.7,2.2-10.7,7.3
			c0,3.4,2.4,5.5,7.1,6.5l22.1,4.5c14.6,3,26,12.1,26,28.2c0,22.2-20.1,31.6-42.6,31.6c-23,0-40.8-8.2-44.1-27.3l32,0.2
			c2.5,3.4,8.4,4.9,13.8,4.9c5.9,0,12.1-2.3,12.1-7.5c0-3.5-3.1-5.8-9.3-6.9l-19.1-3.7c-14.9-2.8-27.3-10.9-27.3-27.3
			C569.4,39.8,588.1,28.6,609.7,28.6z"/>
		<path class="st0" d="M732.4,97.6l6.9,23.6c-8.6,4.6-17.1,6.9-25.6,6.9c-23.8,0-37.4-13.4-37.4-37.4V55.1h-17V31.4h17V3.7h29.9
			v27.7h27.7v23.7h-27.7v32.5c0,9.1,4.2,13.6,12.5,13.6C723.2,101.3,729.3,99.2,732.4,97.6z"/>
		<path class="st0" d="M841.4,57.4c3.1,6.9,4.6,13.8,4.6,20.9c0,23.8-14.3,39.3-31.8,46c-6.2,2.4-12.8,3.6-19.6,3.6
			c-14.1,0-24.5-4.2-33.9-11.4c-10.1-7.7-18-21.6-18-38.1c0-15.6,6.6-27.7,15.2-35.6c8.6-7.9,21.2-13.7,36.7-13.7
			C816.8,29,834.2,41.1,841.4,57.4z M794.6,102.6c12.8,0,22.6-10.9,22.6-24.3c0-13.1-10-24.3-22.6-24.3c-13.4,0-23.2,10.7-23.2,24.3
			C771.4,92.1,781.5,102.6,794.6,102.6z"/>
	</g>
	<g>
		<path class="st0" d="M17,273.5c9.2,0,17.2,7.7,17.2,16.8c0,9.5-7.6,16.8-17.2,16.8c-9.6,0-17-7.3-17-16.8
			C0,281.3,7.8,273.5,17,273.5z"/>
		<path class="st0" d="M112.5,272.4h30c-3.4,15.7-14.2,27.1-27.4,32.6c-6.4,2.7-13.2,4-20.5,4c-15.3,0-27.7-5.9-36.1-13.7
			c-8.5-7.9-15.1-20.4-15.1-36c0-17.9,8.4-31,18.8-39c7.6-5.9,18.9-10.7,32.4-10.7c11.5,0,21.7,3.3,30.6,9.9
			c8.9,6.6,14.7,15.3,17.3,26.2h-30.3c-3.2-5.7-9.5-9.9-17.5-9.9c-13.2,0-22.4,9.8-22.4,23.6c0,13.3,8.7,23.6,22.4,23.6
			C103.6,282.9,109.2,278.4,112.5,272.4z"/>
		<path class="st0" d="M250.6,238.4c3.1,6.9,4.6,13.8,4.6,20.9c0,23.8-14.3,39.3-31.8,46c-6.2,2.4-12.8,3.6-19.6,3.6
			c-14.1,0-24.5-4.2-33.9-11.4c-10.1-7.7-18-21.6-18-38.1c0-15.6,6.6-27.7,15.2-35.6c8.6-7.9,21.2-13.7,36.7-13.7
			C225.9,210,243.3,222.1,250.6,238.4z M203.7,283.6c12.8,0,22.6-10.9,22.6-24.3c0-13.1-10-24.3-22.6-24.3
			c-13.4,0-23.2,10.7-23.2,24.3C180.6,273.1,190.6,283.6,203.7,283.6z"/>
	</g>
</g>
</svg>
