<!-- Generator: Adobe Illustrator 22.0.1, SVG Export Plug-In  -->
<svg version="1.1"
	 xmlns="http://www.w3.org/2000/svg" xmlns:xlink="http://www.w3.org/1999/xlink" xmlns:a="http://ns.adobe.com/AdobeSVGViewerExtensions/3.0/"
	 x="0px" y="0px" width="918px" height="180.4px" viewBox="0 0 918 180.4"
	 style="overflow:scroll;enable-background:new 0 0 918 180.4;" xml:space="preserve">
<style type="text/css">
	.st0{fill:#1E120D;}
	.st1{fill:#D6212F;}
</style>
<defs>
</defs>
<g>
	<g>
		<path class="st0" d="M264.5,112.5l24.8,28.1h-23.5L242,113.4h-5.7v27.1h-19.5V61.5h40c16.3,0,28.4,9.9,28.4,25.8
			C285.3,101.1,276.3,109.8,264.5,112.5z M254.7,78.1h-18.4v19h18.4c6.4,0,11.4-3.5,11.4-9.6C266.2,81.5,261,78.1,254.7,78.1z"/>
		<path class="st0" d="M321.6,142.3c-9.4,0-16.9-3.8-22.1-8.7c-5.3-5-9.2-12.9-9.2-22.7c0-14.9,8.5-24.8,19.4-29.1
			c3.9-1.5,7.9-2.3,12-2.3c14.3,0,23.8,8.1,28,18.5c1.6,3.9,2.5,8.2,2.5,12.9v4.8h-43.4c1.4,6.1,5.7,11.4,12.7,11.4
			c5.9,0,10.1-2.3,12.6-6.8l16.8,3.4C346.4,134.8,337.2,142.3,321.6,142.3z M321.8,94.9c-6.2,0-11,4.3-12.5,9.3h24.4
			C332.2,99,328,94.9,321.8,94.9z"/>
		<path class="st0" d="M422.1,91c3.6,4.7,6.3,12.2,6.3,19.9c0,9.6-3.7,17.6-8.6,22.7c-4.6,4.9-11.6,8.7-20.4,8.7
			c-7.5,0-13.6-2.2-18.4-6.5v24.8h-18.9V81.3H381V86c4.8-4.3,10.9-6.5,18.4-6.5C410.2,79.5,417.1,84.7,422.1,91z M395.5,126.3
			c8.5,0,14.3-6.5,14.3-15.3c0-8.5-5.6-15.3-14.3-15.3c-8.2,0-14.5,7-14.5,15.3C381,119.5,387.3,126.3,395.5,126.3z"/>
		<path class="st0" d="M478.5,108.8V81.3h18.9v59.2h-18.9v-5.7c-4,4.3-10.3,7.4-18.2,7.4c-11.2,0-18.3-6.2-21.4-14.6
			c-1.1-3.1-1.7-6.4-1.7-10V81.3h18.8v32.3c0,6.3,3.7,11.7,10.1,11.7C475,125.3,478.5,118.4,478.5,108.8z"/>
		<path class="st0" d="M538.4,142.3c-9.4,0-16.9-3.8-22.1-8.7c-5.3-5-9.2-12.9-9.2-22.7c0-14.9,8.5-24.8,19.4-29.1
			c3.9-1.5,7.9-2.3,12-2.3c14.3,0,23.8,8.1,28,18.5c1.6,3.9,2.5,8.2,2.5,12.9l0,4.8h-43.4c1.4,6.1,5.7,11.4,12.7,11.4
			c5.9,0,10.1-2.3,12.6-6.8l16.8,3.4C563.2,134.8,554,142.3,538.4,142.3z M538.6,94.9c-6.2,0-11,4.3-12.5,9.3h24.4
			C549,99,544.8,94.9,538.6,94.9z"/>
		<path class="st0" d="M601.8,79.5c13.7,0,24.4,6.1,26.9,17l-18.9-0.1c-1.8-2.1-4.6-3.4-8.2-3.4c-3.7,0-6.7,1.4-6.7,4.6
			c0,2.1,1.5,3.5,4.5,4.1l13.9,2.8c9.2,1.9,16.4,7.6,16.4,17.8c0,14-12.7,19.9-26.9,19.9c-14.5,0-25.8-5.2-27.9-17.2l20.2,0.1
			c1.6,2.1,5.3,3.1,8.7,3.1c3.7,0,7.7-1.4,7.7-4.7c0-2.2-2-3.7-5.9-4.4l-12-2.4c-9.4-1.8-17.2-6.9-17.2-17.2
			C576.3,86.6,588.2,79.5,601.8,79.5z"/>
		<path class="st0" d="M679.2,123.1l4.4,14.9c-5.4,2.9-10.8,4.4-16.2,4.4c-15,0-23.6-8.5-23.6-23.6V96.3h-10.7v-15h10.7V63.8h18.9
			v17.5h17.5v15h-17.5v20.5c0,5.7,2.6,8.6,7.9,8.6C673.5,125.4,677.3,124.1,679.2,123.1z"/>
		<path class="st0" d="M748.1,97.7c1.9,4.3,2.9,8.7,2.9,13.2c0,15-9,24.8-20.1,29c-3.9,1.5-8.1,2.2-12.4,2.2
			c-8.9,0-15.4-2.7-21.4-7.2c-6.4-4.9-11.4-13.7-11.4-24.1c0-9.9,4.2-17.5,9.6-22.5c5.4-5,13.4-8.7,23.2-8.7
			C732.6,79.8,743.5,87.4,748.1,97.7z M718.5,126.3c8.1,0,14.3-6.9,14.3-15.3c0-8.2-6.3-15.3-14.3-15.3c-8.5,0-14.6,6.8-14.6,15.3
			C703.9,119.6,710.3,126.3,718.5,126.3z"/>
		<path class="st0" d="M767.6,119.9c5.8,0,10.9,4.9,10.9,10.6c0,6-4.8,10.6-10.9,10.6c-6,0-10.7-4.6-10.7-10.6
			C756.9,124.8,761.8,119.9,767.6,119.9z"/>
		<path class="st0" d="M827.9,119.2h18.9c-2.1,9.9-9,17.1-17.3,20.6c-4.1,1.7-8.4,2.5-12.9,2.5c-9.7,0-17.5-3.7-22.8-8.7
			c-5.4-5-9.6-12.9-9.6-22.7c0-11.3,5.3-19.6,11.9-24.6c4.8-3.7,11.9-6.8,20.5-6.8c7.2,0,13.7,2.1,19.3,6.3
			c5.6,4.2,9.3,9.7,10.9,16.5h-19.2c-2-3.6-6-6.3-11.1-6.3c-8.3,0-14.2,6.2-14.2,14.9c0,8.4,5.5,14.9,14.2,14.9
			C822.3,125.8,825.9,123,827.9,119.2z"/>
		<path class="st0" d="M915.1,97.7c1.9,4.3,2.9,8.7,2.9,13.2c0,15-9,24.8-20.1,29c-3.9,1.5-8.1,2.2-12.4,2.2
			c-8.9,0-15.4-2.7-21.4-7.2c-6.4-4.9-11.4-13.7-11.4-24.1c0-9.9,4.2-17.5,9.6-22.5c5.4-5,13.4-8.7,23.2-8.7
			C899.6,79.8,910.5,87.4,915.1,97.7z M885.5,126.3c8.1,0,14.3-6.9,14.3-15.3c0-8.2-6.3-15.3-14.3-15.3c-8.5,0-14.6,6.8-14.6,15.3
			C870.9,119.6,877.3,126.3,885.5,126.3z"/>
	</g>
	<g>
		<path class="st1" d="M98.4,0H18.7C8.4,0,0,8.4,0,18.7v142.9c0,10.3,8.4,18.7,18.7,18.7h142.9c10.3,0,18.7-8.4,18.7-18.7V82.1
			C180.4,36.8,143.6,0,98.4,0z M160.6,160.6H19.8V19.8h78.6c34.3,0,62.3,27.9,62.3,62.3V160.6z"/>
		<path class="st0" d="M107.6,107.9c14.2-4.4,24.8-15.8,24.8-33.1c0-21.5-16.4-34.9-38.4-34.9H39.8v100.7h26.3v-30.5H78l30.8,30.5
			h31.7L107.6,107.9z M66.2,88V62.4h24.9c8.5,0,15.5,4.6,15.5,12.8c0,8.2-6.9,12.9-15.5,12.9H66.2z"/>
	</g>
</g>
</svg>
