<svg height="512pt" fill="#f5f2f2" viewBox="0 0 512 512" width="512pt" xmlns="http://www.w3.org/2000/svg"><path d="m512 303.761719v-95.523438l-75.65625-11.535156c-2.964844-9.027344-6.609375-17.824219-10.894531-26.296875l45.339843-61.652344-67.542968-67.542968-61.652344 45.339843c-8.476562-4.285156-17.269531-7.929687-26.296875-10.894531l-11.535156-75.65625h-95.523438l-11.535156 75.65625c-9.027344 2.964844-17.824219 6.609375-26.296875 10.894531l-61.652344-45.339843-67.542968 67.542968 45.339843 61.652344c-4.285156 8.476562-7.929687 17.269531-10.894531 26.296875l-75.65625 11.535156v95.523438l75.65625 11.535156c2.964844 9.027344 6.609375 17.824219 10.894531 26.296875l-45.339843 61.652344 67.542968 67.542968 61.652344-45.339843c8.476562 4.285156 17.269531 7.929687 26.296875 10.894531l11.535156 75.65625h95.523438l11.535156-75.65625c9.027344-2.964844 17.820313-6.609375 26.296875-10.894531l61.652344 45.339843 67.542968-67.542968-45.339843-61.652344c4.285156-8.476562 7.929687-17.269531 10.894531-26.296875zm-80.644531 96.496093-31.097657 31.097657-56.40625-41.484375-8.476562 4.863281c-11.738281 6.730469-24.324219 11.945313-37.40625 15.496094l-9.429688 2.558593-10.550781 69.210938h-43.976562l-10.550781-69.210938-9.429688-2.558593c-13.078125-3.550781-25.664062-8.765625-37.40625-15.496094l-8.476562-4.863281-56.40625 41.480468-31.097657-31.09375 41.484375-56.40625-4.863281-8.480468c-6.730469-11.738282-11.945313-24.320313-15.496094-37.402344l-2.558593-9.429688-69.210938-10.550781v-43.976562l69.210938-10.550781 2.558593-9.429688c3.550781-13.082031 8.765625-25.667969 15.496094-37.40625l4.863281-8.476562-41.484375-56.40625 31.097657-31.097657 56.40625 41.484375 8.476562-4.863281c11.738281-6.730469 24.324219-11.945313 37.40625-15.496094l9.429688-2.558593 10.550781-69.210938h43.976562l10.550781 69.210938 9.429688 2.558593c13.082031 3.550781 25.667969 8.765625 37.40625 15.496094l8.476562 4.863281 56.410157-41.484375 31.09375 31.097657-41.484375 56.40625 4.863281 8.476562c6.730469 11.738281 11.945313 24.324219 15.496094 37.40625l2.558593 9.429688 69.210938 10.550781v43.976562l-69.210938 10.550781-2.558593 9.429688c-3.550781 13.082031-8.765625 25.667969-15.496094 37.40625l-4.863281 8.476562zm0 0"/><path d="m256 130c-69.476562 0-126 56.523438-126 126s56.523438 126 126 126 126-56.523438 126-126-56.523438-126-126-126zm0 222c-52.933594 0-96-43.066406-96-96s43.066406-96 96-96 96 43.066406 96 96-43.066406 96-96 96zm0 0"/><path d="m256 194c-34.1875 0-62 27.8125-62 62s27.8125 62 62 62 62-27.8125 62-62-27.8125-62-62-62zm0 94c-17.644531 0-32-14.355469-32-32s14.355469-32 32-32 32 14.355469 32 32-14.355469 32-32 32zm0 0"/></svg>