<!-- Generator: Adobe Illustrator 22.0.1, SVG Export Plug-In  -->
<svg version="1.1"
	 xmlns="http://www.w3.org/2000/svg" xmlns:xlink="http://www.w3.org/1999/xlink" xmlns:a="http://ns.adobe.com/AdobeSVGViewerExtensions/3.0/"
	 x="0px" y="0px" width="818px" height="818px" viewBox="0 0 818 818" style="overflow:scroll;enable-background:new 0 0 818 818;"
	 xml:space="preserve">
<style type="text/css">
	.st0{fill:#D6212F;}
	.st1{fill:#1E120D;}
</style>
<defs>
</defs>
<g>
	<path class="st0" d="M445.9,0H85C38.1,0,0,38.1,0,85V733c0,46.8,38.1,85,85,85H733c46.9,0,85-38.1,85-85v-361
		C818,166.9,651.1,0,445.9,0z M728.4,728.4H89.6V89.6h356.3c155.7,0,282.4,126.7,282.4,282.4V728.4z"/>
	<path class="st1" d="M487.8,489.2c64.5-19.7,112.3-71.4,112.3-150c0-97.7-74.6-158.4-174.3-158.4H180.7v456.5H300V499h53.8
		l139.7,138.3h143.8L487.8,489.2z M300,399.2V282.7h112.8c38.3,0,70.1,20.9,70.1,57.9c0,37.3-31.2,58.6-70.1,58.6H300z"/>
</g>
</svg>
