<!-- Generator: Adobe Illustrator 22.0.1, SVG Export Plug-In  -->
<svg version="1.1"
	 xmlns="http://www.w3.org/2000/svg" xmlns:xlink="http://www.w3.org/1999/xlink" xmlns:a="http://ns.adobe.com/AdobeSVGViewerExtensions/3.0/"
	 x="0px" y="0px" width="892px" height="126.1px" viewBox="0 0 892 126.1"
	 style="overflow:scroll;enable-background:new 0 0 892 126.1;" xml:space="preserve">
<defs>
</defs>
<g>
	<path d="M60.7,64.9l31.5,35.7H62.3L32,66.1h-7.2v34.5H0V0h50.9c20.7,0,36.2,12.6,36.2,32.9C87.1,50.4,75.6,61.5,60.7,64.9z
		 M48.2,21.2H24.8v24.2h23.4c8.1,0,14.6-4.4,14.6-12.2C62.8,25.5,56.2,21.2,48.2,21.2z"/>
	<path d="M133.3,102.9c-11.9,0-21.6-4.8-28.1-11c-6.7-6.4-11.7-16.4-11.7-28.9c0-19,10.8-31.5,24.6-37c4.9-2,10-2.9,15.3-2.9
		c18.2,0,30.2,10.3,35.7,23.6c2.1,5,3.1,10.5,3.2,16.4v6.2h-55.3c1.8,7.7,7.3,14.6,16.2,14.6c7.5,0,12.9-2.9,16.1-8.7l21.3,4.4
		C164.9,93.3,153.1,102.9,133.3,102.9z M133.5,42.5c-7.8,0-14,5.5-15.9,11.9h31.1C146.7,47.7,141.4,42.5,133.5,42.5z"/>
	<path d="M261.1,37.6c4.6,5.9,8,15.5,8,25.3c0,12.2-4.7,22.4-10.9,28.9c-5.8,6.2-14.7,11-25.9,11c-9.5,0-17.3-2.8-23.4-8.3v31.5h-24
		V25.2h24v6c6.1-5.5,13.9-8.3,23.4-8.3C245.9,23,254.8,29.5,261.1,37.6z M227.3,82.4c10.8,0,18.2-8.2,18.2-19.5
		c0-10.8-7.1-19.5-18.2-19.5c-10.4,0-18.5,8.9-18.5,19.5C208.9,73.8,216.9,82.4,227.3,82.4z"/>
	<path d="M332.9,60.2v-35h24v75.4h-24v-7.2c-5.1,5.4-13.1,9.5-23.1,9.5c-14.3,0-23.3-7.9-27.2-18.6c-1.4-3.9-2.1-8.2-2.1-12.8V25.2
		h23.9v41.1c0,8,4.7,14.9,12.9,14.9C328.5,81.2,332.9,72.4,332.9,60.2z"/>
	<path d="M409.1,102.9c-11.9,0-21.6-4.8-28.1-11c-6.7-6.4-11.7-16.4-11.7-28.9c0-19,10.8-31.5,24.6-37c4.9-2,10-2.9,15.3-2.9
		c18.2,0,30.2,10.3,35.7,23.6c2.1,5,3.1,10.5,3.2,16.4l0,6.2h-55.3c1.8,7.7,7.3,14.6,16.2,14.6c7.5,0,12.9-2.9,16.1-8.7l21.3,4.4
		C440.7,93.3,428.9,102.9,409.1,102.9z M409.3,42.5c-7.8,0-14,5.5-15.9,11.9h31.1C422.5,47.7,417.3,42.5,409.3,42.5z"/>
	<path d="M489.8,23c17.5,0,31.1,7.8,34.2,21.6l-24.1-0.2c-2.3-2.7-5.8-4.4-10.5-4.4c-4.7,0-8.6,1.8-8.6,5.9c0,2.7,1.9,4.5,5.7,5.3
		l17.7,3.6c11.7,2.4,20.9,9.7,20.9,22.7c0,17.8-16.1,25.4-34.2,25.4c-18.5,0-32.8-6.6-35.4-21.9l25.7,0.1c2,2.7,6.7,3.9,11.1,3.9
		c4.8,0,9.8-1.8,9.8-6c0-2.8-2.5-4.7-7.5-5.6l-15.3-3c-11.9-2.3-21.9-8.8-21.9-21.9C457.3,31.9,472.4,23,489.8,23z"/>
	<path d="M588.3,78.4l5.6,18.9c-6.9,3.7-13.8,5.6-20.6,5.6c-19.1,0-30-10.8-30-30V44.3h-13.7V25.2h13.7V3h24v22.2h22.2v19.1h-22.2
		v26.1c0,7.3,3.4,11,10.1,11C580.9,81.4,585.8,79.7,588.3,78.4z"/>
	<path d="M675.9,46.1c2.5,5.5,3.7,11.1,3.7,16.8c0,19.1-11.5,31.6-25.5,36.9c-5,1.9-10.3,2.9-15.8,2.9c-11.3,0-19.6-3.4-27.3-9.2
		c-8.2-6.2-14.5-17.4-14.5-30.6c0-12.6,5.3-22.2,12.2-28.6c6.9-6.3,17-11,29.5-11C656.1,23.3,670.1,33,675.9,46.1z M638.3,82.4
		c10.3,0,18.2-8.7,18.2-19.5c0-10.5-8-19.5-18.2-19.5c-10.8,0-18.6,8.6-18.6,19.5C619.7,74,627.7,82.4,638.3,82.4z"/>
	<path d="M700.7,74.3c7.4,0,13.8,6.2,13.8,13.5c0,7.6-6.1,13.5-13.8,13.5c-7.7,0-13.7-5.9-13.7-13.5
		C687.1,80.5,693.3,74.3,700.7,74.3z"/>
	<path d="M777.4,73.4h24.1c-2.7,12.6-11.4,21.8-22,26.2c-5.2,2.2-10.6,3.2-16.4,3.2c-12.3,0-22.2-4.7-29-11
		c-6.8-6.4-12.2-16.4-12.2-28.9c0-14.4,6.8-24.9,15.1-31.3c6.1-4.7,15.2-8.6,26.1-8.6c9.2,0,17.4,2.7,24.5,8
		c7.2,5.3,11.8,12.3,13.9,21h-24.4c-2.6-4.6-7.6-8-14.1-8c-10.6,0-18,7.9-18,18.9c0,10.7,7,18.9,18,18.9
		C770.3,81.8,774.8,78.2,777.4,73.4z"/>
	<path d="M888.3,46.1c2.5,5.5,3.7,11.1,3.7,16.8c0,19.1-11.5,31.6-25.5,36.9c-5,1.9-10.3,2.9-15.8,2.9c-11.3,0-19.6-3.4-27.3-9.2
		c-8.1-6.2-14.5-17.4-14.5-30.6c0-12.6,5.3-22.2,12.2-28.6c6.9-6.3,17-11,29.5-11C868.6,23.3,882.5,33,888.3,46.1z M850.7,82.4
		c10.3,0,18.2-8.7,18.2-19.5c0-10.5-8-19.5-18.2-19.5c-10.8,0-18.6,8.6-18.6,19.5C832.1,74,840.2,82.4,850.7,82.4z"/>
</g>
</svg>
