<!-- Generator: Adobe Illustrator 22.0.1, SVG Export Plug-In  -->
<svg version="1.1"
	 xmlns="http://www.w3.org/2000/svg" xmlns:xlink="http://www.w3.org/1999/xlink" xmlns:a="http://ns.adobe.com/AdobeSVGViewerExtensions/3.0/"
	 x="0px" y="0px" width="601px" height="854px" viewBox="0 0 601 854" style="overflow:scroll;enable-background:new 0 0 601 854;"
	 xml:space="preserve">
<style type="text/css">
	.st0{fill:#fff;}
	.st1{fill:#D6212F;}
</style>
<defs>
</defs>
<g>
	<g>
		<g>
			<path class="st0" d="M53.6,691.8l27.9,31.6H55.1l-26.8-30.5h-6.4v30.5H0v-89h45c18.3,0,32,11.1,32,29.1
				C77,679.1,66.9,688.9,53.6,691.8z M42.6,653.2H21.9v21.4h20.7c7.2,0,12.9-3.9,12.9-10.8C55.5,657,49.7,653.2,42.6,653.2z"/>
			<path class="st0" d="M117.9,725.4c-10.6,0-19.1-4.2-24.8-9.8c-5.9-5.7-10.4-14.5-10.4-25.6c0-16.8,9.6-27.9,21.8-32.7
				c4.3-1.7,8.9-2.6,13.5-2.6c16.1,0,26.7,9.1,31.5,20.8c1.8,4.4,2.8,9.3,2.9,14.5v5.4h-48.9c1.6,6.8,6.4,12.9,14.3,12.9
				c6.6,0,11.4-2.6,14.2-7.7l18.9,3.9C145.8,716.9,135.4,725.4,117.9,725.4z M118,672c-6.9,0-12.4,4.9-14.1,10.5h27.5
				C129.8,676.7,125.1,672,118,672z"/>
			<path class="st0" d="M230.9,667.7c4.1,5.2,7,13.7,7,22.4c0,10.8-4.2,19.8-9.6,25.6c-5.2,5.5-13,9.8-22.9,9.8
				c-8.4,0-15.3-2.4-20.7-7.3V746h-21.2v-89.2h21.2v5.3c5.4-4.9,12.3-7.3,20.7-7.3C217.5,654.8,225.3,660.6,230.9,667.7z M201,707.4
				c9.5,0,16.1-7.3,16.1-17.3c0-9.5-6.3-17.3-16.1-17.3c-9.2,0-16.3,7.8-16.3,17.3C184.7,699.7,191.8,707.4,201,707.4z"/>
			<path class="st0" d="M294.4,687.7v-30.9h21.2v66.7h-21.2V717c-4.5,4.8-11.6,8.4-20.4,8.4c-12.6,0-20.6-7-24-16.5
				c-1.2-3.5-1.9-7.2-1.9-11.3v-40.9h21.1v36.4c0,7.1,4.2,13.1,11.4,13.1C290.5,706.3,294.4,698.5,294.4,687.7z"/>
			<path class="st0" d="M361.8,725.4c-10.6,0-19.1-4.2-24.8-9.8c-5.9-5.7-10.4-14.5-10.4-25.6c0-16.8,9.6-27.9,21.8-32.7
				c4.3-1.7,8.9-2.6,13.5-2.6c16.1,0,26.7,9.1,31.5,20.8c1.8,4.4,2.8,9.3,2.9,14.5l0,5.4h-48.9c1.6,6.8,6.4,12.9,14.3,12.9
				c6.6,0,11.4-2.6,14.2-7.7l18.9,3.9C389.7,716.9,379.3,725.4,361.8,725.4z M362,672c-6.9,0-12.4,4.9-14.1,10.5h27.5
				C373.7,676.7,369,672,362,672z"/>
			<path class="st0" d="M433.1,654.8c15.4,0,27.5,6.9,30.3,19.1l-21.3-0.1c-2-2.4-5.2-3.9-9.3-3.9c-4.1,0-7.6,1.6-7.6,5.2
				c0,2.4,1.7,3.9,5,4.6l15.7,3.2c10.3,2.1,18.5,8.6,18.5,20.1c0,15.8-14.3,22.4-30.3,22.4c-16.3,0-29-5.8-31.3-19.4l22.7,0.1
				c1.8,2.4,5.9,3.5,9.8,3.5c4.2,0,8.6-1.6,8.6-5.3c0-2.5-2.2-4.1-6.6-4.9l-13.5-2.7c-10.6-2-19.4-7.8-19.4-19.4
				C404.5,662.7,417.8,654.8,433.1,654.8z"/>
			<path class="st0" d="M520.2,703.8l4.9,16.7c-6.1,3.3-12.2,4.9-18.2,4.9c-16.9,0-26.6-9.5-26.6-26.6v-25.2h-12.1v-16.9h12.1v-19.7
				h21.2v19.7h19.7v16.9h-19.7v23.1c0,6.5,3,9.7,8.9,9.7C513.7,706.4,518.1,704.9,520.2,703.8z"/>
			<path class="st0" d="M597.7,675.2c2.2,4.9,3.3,9.8,3.3,14.9c0,16.9-10.1,27.9-22.6,32.7c-4.4,1.7-9.1,2.5-13.9,2.5
				c-10,0-17.4-3-24.1-8.1c-7.2-5.5-12.8-15.4-12.8-27.1c0-11.1,4.7-19.7,10.8-25.3c6.1-5.6,15.1-9.8,26.1-9.8
				C580.2,655,592.6,663.6,597.7,675.2z M564.5,707.4c9.1,0,16.1-7.7,16.1-17.3c0-9.3-7.1-17.3-16.1-17.3c-9.5,0-16.5,7.6-16.5,17.3
				C548,699.9,555.1,707.4,564.5,707.4z"/>
		</g>
		<g>
			<path class="st0" d="M12.1,828.8c6.5,0,12.2,5.5,12.2,12c0,6.7-5.4,12-12.2,12c-6.8,0-12.1-5.2-12.1-12
				C0,834.3,5.6,828.8,12.1,828.8z"/>
			<path class="st0" d="M79.9,828h21.3c-2.4,11.1-10.1,19.3-19.5,23.2c-4.6,1.9-9.4,2.9-14.5,2.9c-10.9,0-19.7-4.2-25.6-9.8
				c-6-5.6-10.8-14.5-10.8-25.6c0-12.7,6-22,13.3-27.7c5.4-4.2,13.4-7.6,23-7.6c8.1,0,15.4,2.3,21.7,7c6.3,4.7,10.4,10.9,12.3,18.6
				H79.6c-2.3-4-6.8-7-12.4-7c-9.4,0-15.9,7-15.9,16.7c0,9.4,6.2,16.7,15.9,16.7C73.6,835.4,77.6,832.2,79.9,828z"/>
			<path class="st0" d="M178,803.8c2.2,4.9,3.3,9.8,3.3,14.9c0,16.9-10.1,27.9-22.6,32.7c-4.4,1.7-9.1,2.5-13.9,2.5
				c-10,0-17.4-3-24.1-8.1c-7.2-5.5-12.8-15.4-12.8-27.1c0-11.1,4.7-19.7,10.8-25.3c6.1-5.6,15.1-9.8,26.1-9.8
				C160.5,783.6,172.8,792.2,178,803.8z M144.7,835.9c9.1,0,16.1-7.7,16.1-17.3c0-9.3-7.1-17.3-16.1-17.3c-9.5,0-16.5,7.6-16.5,17.3
				C128.3,828.5,135.4,835.9,144.7,835.9z"/>
		</g>
	</g>
	<g>
		<path class="st1" d="M327.6,0H62.4C28,0,0,28,0,62.4v476.1C0,573,28,601,62.4,601h476.1c34.4,0,62.4-28,62.4-62.4V273.4
			C601,122.6,478.4,0,327.6,0z M535.1,535.1H65.9V65.9h261.8c114.4,0,207.5,93.1,207.5,207.5V535.1z"/>
		<path class="st0" d="M358.4,359.4c47.4-14.5,82.5-52.5,82.5-110.2c0-71.8-54.8-116.4-128-116.4H132.7v335.4h87.7V366.6H260
			l102.6,101.6h105.6L358.4,359.4z M220.4,293.3v-85.5h82.9c28.2,0,51.5,15.3,51.5,42.5c0,27.4-22.9,43-51.5,43H220.4z"/>
	</g>
</g>
</svg>
