<?xml version="1.0" standalone="no"?>
<!DOCTYPE svg PUBLIC "-//W3C//DTD SVG 20010904//EN"
 "http://www.w3.org/TR/2001/REC-SVG-20010904/DTD/svg10.dtd">
<svg version="1.0" xmlns="http://www.w3.org/2000/svg"
 width="500pt" height="500pt" viewBox="0 0 1920.000000 1080.000000"
 preserveAspectRatio="xMidYMid meet">

<g transform="translate(0.000000,1080.000000) scale(0.100000,-0.100000)"
fill="#00" stroke="none">
<path d="M0 6840 c0 -2780 3 -3960 11 -3960 5 0 8 4 4 9 -3 5 9 20 27 32 18
13 35 26 38 29 21 22 126 57 305 100 116 28 266 64 335 80 68 17 147 41 175
54 27 13 88 32 135 41 47 10 93 22 104 28 26 13 42 -7 61 -78 22 -85 20 -112
-8 -118 -84 -18 -179 -36 -221 -42 -28 -4 -80 -18 -117 -31 -36 -13 -75 -24
-87 -24 -11 0 -42 -6 -68 -14 -27 -8 -69 -20 -94 -27 l-45 -12 90 -13 c50 -6
106 -18 125 -24 37 -14 86 -60 96 -92 3 -10 10 -15 16 -12 7 5 9 1 5 -9 -3
-10 -2 -17 2 -17 5 0 21 -31 36 -69 l27 -69 -15 -84 c-9 -45 -19 -108 -23
-138 -6 -54 -16 -84 -58 -168 -24 -51 -137 -170 -181 -192 -17 -8 -32 -17 -35
-20 -21 -23 -107 -43 -208 -47 -104 -5 -118 -4 -190 22 -42 15 -79 30 -82 34
-3 3 -17 12 -32 20 -15 8 -50 37 -78 65 l-50 50 0 -744 0 -744 50 50 c28 28
63 57 78 65 15 8 29 17 32 20 3 4 40 19 82 34 72 26 86 27 190 22 101 -4 187
-24 208 -47 3 -3 18 -12 35 -20 44 -22 157 -141 181 -192 42 -84 52 -114 58
-168 4 -30 14 -93 23 -138 l15 -84 -27 -69 c-15 -38 -31 -69 -36 -69 -4 0 -5
-7 -2 -17 4 -10 2 -14 -4 -10 -9 6 -23 -12 -23 -29 0 -2 694 -4 1542 -4 1312
0 1544 2 1557 14 27 24 71 24 71 1 0 -13 83 -15 685 -15 470 0 685 3 685 10 0
13 100 164 112 168 4 2 8 10 8 17 0 7 3 15 8 17 4 1 23 23 42 48 19 25 48 61
66 80 17 19 55 62 84 95 29 33 93 101 141 152 49 50 89 96 89 101 0 12 -3 16
-110 112 -46 41 -103 93 -128 115 l-44 41 34 41 c18 23 39 42 46 42 6 1 12 7
12 15 0 8 19 34 43 58 54 55 117 128 117 135 0 2 18 22 40 44 22 22 40 45 40
52 0 7 10 17 23 22 14 7 22 19 22 35 0 16 -8 28 -22 35 -13 5 -23 15 -23 22 0
7 -18 30 -40 52 -22 22 -40 42 -40 44 0 7 -63 80 -117 135 -24 24 -43 50 -43
58 0 8 -6 14 -12 15 -7 0 -29 19 -48 41 l-34 40 49 45 c174 158 235 216 235
225 0 5 -40 51 -89 101 -48 51 -112 119 -141 152 -29 33 -67 76 -84 95 -18 19
-47 55 -66 80 -19 25 -38 47 -42 48 -5 2 -8 10 -8 17 0 7 -4 15 -8 17 -13 5
-104 146 -132 203 -14 28 -28 52 -31 55 -16 14 -65 181 -79 269 -5 35 -16 74
-25 87 -30 46 -12 151 46 267 21 43 39 85 39 93 0 9 13 29 30 44 16 15 35 41
40 56 16 41 -1 168 -35 269 -15 44 -89 211 -100 225 -7 8 -25 40 -41 70 -16
30 -31 57 -35 60 -3 3 -30 41 -60 85 -30 44 -66 96 -79 115 -31 44 -211 273
-220 280 -3 3 -13 14 -21 26 -8 11 -39 50 -71 85 -31 35 -67 78 -79 94 -13 17
-26 32 -29 35 -12 10 -149 164 -206 232 -18 20 -34 35 -38 33 -3 -3 -4 -2 -1
1 2 4 0 15 -6 26 -13 24 16 60 71 88 l36 18 84 -90 c129 -137 143 -152 185
-203 21 -26 48 -57 59 -69 12 -12 39 -44 61 -71 22 -28 50 -60 63 -73 12 -13
22 -27 22 -32 0 -5 6 -13 13 -17 7 -4 20 -17 28 -29 13 -19 80 -102 104 -128
6 -6 16 -22 23 -37 7 -14 26 -38 41 -55 15 -16 45 -56 67 -88 114 -171 134
-202 134 -210 0 -5 6 -17 14 -25 8 -9 35 -59 61 -111 25 -52 50 -103 55 -112
5 -9 13 -35 16 -58 4 -22 10 -40 14 -40 12 0 34 -141 23 -149 -19 -13 -33 -65
-33 -119 0 -70 -27 -169 -75 -269 -20 -42 -43 -101 -51 -132 -28 -109 -9 -237
35 -235 11 0 21 -5 21 -13 0 -7 4 -21 9 -31 5 -9 26 -53 46 -97 36 -78 135
-240 159 -260 6 -5 27 -30 46 -55 19 -25 46 -58 61 -75 100 -111 154 -169 228
-247 l84 -88 36 27 c20 15 38 30 41 33 3 3 39 35 80 70 41 36 83 73 95 83 32
30 133 107 139 107 3 0 6 -5 6 -10 0 -6 10 -21 23 -33 12 -12 43 -47 67 -77
25 -30 52 -62 60 -71 23 -24 143 -159 163 -183 71 -84 106 -125 135 -153 17
-17 32 -35 32 -40 0 -4 22 -31 48 -59 106 -114 152 -167 152 -173 0 -4 10 -16
23 -28 39 -35 97 -104 113 -135 14 -27 14 -32 -1 -48 -14 -16 -14 -18 0 -23 8
-4 15 -14 15 -24 0 -10 9 -33 20 -51 20 -32 20 -32 0 -65 -11 -17 -20 -40 -20
-50 0 -10 -7 -20 -15 -24 -14 -5 -14 -7 0 -23 15 -16 15 -21 1 -48 -16 -31
-74 -100 -113 -135 -13 -12 -23 -24 -23 -28 0 -6 -46 -59 -152 -173 -26 -28
-48 -55 -48 -59 0 -5 -15 -23 -32 -40 -29 -28 -64 -69 -135 -153 -20 -24 -140
-159 -163 -183 -8 -9 -35 -41 -60 -71 -25 -30 -58 -69 -75 -86 l-29 -32 -56
44 c-30 24 -67 54 -81 66 -14 13 -55 48 -89 78 -35 30 -68 60 -74 65 -6 6 -27
23 -47 38 l-36 27 -84 -88 c-74 -78 -128 -136 -228 -247 -15 -16 -42 -50 -61
-75 -19 -25 -40 -49 -46 -55 -14 -12 -74 -101 -74 -109 0 -3 388 -6 861 -6
731 0 860 2 850 14 -15 18 1 61 29 76 16 9 26 7 49 -9 25 -18 30 -19 50 -5 20
15 24 14 56 -11 19 -14 35 -33 35 -41 0 -8 5 -12 10 -9 6 4 17 2 24 -5 9 -6
45 -10 93 -8 68 3 75 5 53 14 -30 14 -55 56 -47 78 5 12 -1 13 -27 9 -22 -3
-36 0 -45 11 -12 14 -11 20 9 41 28 30 53 32 87 5 14 -11 38 -20 53 -20 33 0
65 -41 57 -72 -4 -14 0 -22 14 -25 14 -4 18 -11 14 -24 -6 -18 0 -19 77 -18
46 0 78 3 71 5 -18 8 -39 77 -24 82 22 7 10 21 -21 24 -44 4 -53 43 -13 58 39
15 63 12 69 -8 4 -10 22 -26 41 -35 40 -19 59 -57 50 -99 l-7 -28 231 0 231 0
0 23 c0 38 29 139 57 196 28 56 146 185 165 179 8 -3 37 -74 38 -95 0 -2 -11
-3 -25 -3 -37 0 -70 -19 -88 -50 -13 -22 -17 -53 -17 -139 l0 -111 360 0 360
0 0 113 c0 61 -3 121 -6 132 -7 26 -49 57 -80 59 -20 1 -24 5 -19 21 3 11 8
32 11 48 4 15 11 27 15 27 23 0 142 -135 166 -187 29 -63 53 -146 53 -185 l0
-28 1028 0 c730 0 1031 3 1039 11 8 8 17 8 31 0 14 -8 208 -11 634 -10 337 1
600 4 583 8 -69 17 -162 82 -194 137 -16 26 -29 34 -73 43 -85 18 -83 13 -50
142 17 63 35 139 41 169 27 129 27 128 79 136 115 17 200 83 251 193 18 39 54
157 81 263 27 106 52 203 56 216 4 12 1 29 -6 37 -7 8 -8 15 -3 15 5 0 9 15 8
33 -2 17 2 38 8 45 7 9 5 11 -9 5 -17 -6 -17 -5 -5 10 8 10 11 26 7 39 -4 13
-29 110 -56 216 -27 106 -63 224 -81 263 -51 110 -136 176 -251 193 -52 8 -52
7 -79 136 -6 30 -24 106 -41 169 -33 129 -35 124 50 142 44 9 57 17 73 43 23
39 77 84 139 117 65 33 185 33 253 0 47 -23 50 -23 110 -9 44 11 64 12 68 4 4
-6 28 -100 55 -209 46 -187 48 -199 31 -209 -45 -25 -89 -75 -119 -136 -30
-61 -33 -74 -32 -162 0 -63 8 -128 23 -195 60 -255 100 -410 108 -412 4 -2 24
-13 43 -24 l35 -22 -43 -20 c-48 -24 -41 -7 -97 -242 -20 -82 -43 -179 -52
-215 -9 -36 -17 -110 -17 -165 -1 -94 1 -105 32 -167 30 -61 74 -111 119 -136
17 -10 15 -22 -31 -209 -27 -109 -51 -203 -55 -209 -4 -8 -24 -7 -68 4 -57 14
-65 13 -99 -3 -21 -10 -49 -21 -63 -26 -17 -4 11 -8 76 -8 73 -1 103 3 106 12
4 9 7 9 18 0 10 -10 88 -13 319 -13 l305 0 53 40 c29 22 56 40 61 40 5 0 11 4
13 9 5 13 136 84 218 118 82 34 179 63 280 84 101 22 405 19 504 -4 181 -43
371 -126 501 -220 39 -28 71 -54 73 -59 2 -4 218 -8 481 -8 l477 0 35 36 c40
42 131 89 205 105 107 24 261 -22 345 -103 l39 -38 260 0 260 0 41 45 c23 25
47 45 54 45 7 0 18 -14 25 -30 10 -25 10 -33 -1 -47 -15 -18 -16 -18 36 3 8 3
15 1 15 -5 0 -8 199 -11 715 -11 l715 0 0 5400 0 5400 -9600 0 -9600 0 0
-3960z m4570 -1264 c0 -14 -193 -190 -258 -235 -46 -32 -57 -22 -23 18 17 19
30 37 29 40 -2 22 8 35 53 71 51 40 74 47 48 13 -13 -17 -12 -17 6 -2 96 78
136 109 140 109 3 0 5 -6 5 -14z m10306 -441 c463 -81 846 -385 1026 -815 48
-115 67 -201 80 -363 12 -158 3 -300 -29 -442 -20 -89 -78 -243 -120 -318 -18
-33 -33 -63 -33 -68 0 -5 -4 -9 -10 -9 -5 0 -10 -5 -10 -10 0 -41 -238 -294
-355 -378 -131 -93 -320 -176 -501 -219 -99 -23 -403 -26 -504 -4 -101 21
-198 50 -280 84 -82 34 -213 105 -218 118 -2 5 -8 9 -13 9 -5 0 -35 20 -66 45
-206 159 -361 371 -447 612 -96 272 -100 582 -10 858 147 452 576 820 1045
899 116 19 336 20 445 1z m-12951 -596 c121 -50 224 -95 229 -100 5 -4 -10
-27 -33 -51 -40 -42 -41 -42 -41 -17 0 15 -6 31 -13 37 -12 10 -267 121 -338
147 -20 7 -40 10 -45 7 -16 -11 -64 -99 -64 -116 0 -24 310 -246 343 -246 11
0 32 10 45 23 19 16 24 18 19 6 -3 -10 -11 -46 -18 -80 -6 -35 -13 -66 -15
-67 -3 -4 -434 317 -434 323 0 3 26 57 58 120 41 84 61 115 72 111 8 -2 114
-46 235 -97z m1492 -11 c28 -53 54 -106 58 -117 5 -18 -23 -40 -216 -166 -122
-80 -222 -145 -224 -143 -1 2 -10 34 -19 72 -22 88 -57 157 -114 225 -26 30
-42 56 -37 58 130 49 483 171 490 169 6 -1 33 -46 62 -98z m-870 -65 c-20 -2
-52 -2 -70 0 -17 2 0 4 38 4 39 0 53 -2 32 -4z m-132 -13 c-27 -12 -43 -12
-25 0 8 5 22 9 30 9 10 0 8 -3 -5 -9z m275 -20 c22 -11 40 -23 40 -25 0 -5
-79 32 -89 41 -11 10 14 2 49 -16z m-92 -4 c128 -34 240 -147 257 -258 3 -18
3 -27 -1 -21 -4 10 -9 10 -20 -1 -8 -8 -14 -19 -14 -25 0 -6 -4 -19 -9 -29
-25 -48 -61 -132 -61 -141 0 -17 -91 -107 -96 -95 -7 17 -46 4 -40 -12 12 -30
-87 -51 -158 -33 -31 8 -45 16 -42 25 5 13 -14 24 -43 24 -10 0 -34 13 -52 30
-19 16 -38 30 -43 30 -23 0 -90 95 -102 145 -4 17 -11 36 -17 43 -25 32 35
163 105 228 94 87 219 121 336 90z m-272 -9 c-10 -7 -39 -27 -63 -45 -25 -19
-42 -28 -38 -22 10 16 98 80 110 79 6 0 1 -6 -9 -12z m480 -69 c4 -7 -9 1 -29
16 -20 16 -37 30 -37 33 0 7 58 -36 66 -49z m-606 -37 c-5 -11 -15 -23 -21
-27 -6 -3 -3 5 6 20 20 30 30 35 15 7z m645 -7 c9 -15 12 -23 6 -20 -11 7 -35
46 -28 46 3 0 12 -12 22 -26z m-728 -196 c-3 -7 -5 -2 -5 12 0 14 2 19 5 13 2
-7 2 -19 0 -25z m800 0 c-3 -7 -5 -2 -5 12 0 14 2 19 5 13 2 -7 2 -19 0 -25z
m-800 -110 c-3 -8 -6 -5 -6 6 -1 11 2 17 5 13 3 -3 4 -12 1 -19z m790 -40 c-3
-8 -6 -5 -6 6 -1 11 2 17 5 13 3 -3 4 -12 1 -19z m-16 -45 c-12 -20 -14 -14
-5 12 4 9 9 14 11 11 3 -2 0 -13 -6 -23z m-732 -33 c11 -24 11 -24 -3 -6 -9
11 -16 24 -16 30 0 12 5 7 19 -24z m712 -13 c-10 -9 -11 -8 -5 6 3 10 9 15 12
12 3 -3 0 -11 -7 -18z m8061 -4 c28 -31 78 -104 78 -115 0 -3 -20 -20 -45 -37
l-44 -30 -37 42 c-20 23 -43 57 -52 75 -15 31 -15 35 -1 42 9 5 27 18 40 29
31 26 31 26 61 -6z m-8722 -58 c13 -14 21 -25 18 -25 -2 0 -15 11 -28 25 -13
14 -21 25 -18 25 2 0 15 -11 28 -25z m16217 13 c62 -15 127 -78 143 -138 16
-58 1 -139 -35 -186 -43 -57 -125 -89 -218 -86 -45 2 -95 -20 -118 -51 -8 -11
-58 14 -83 42 -16 17 -16 21 -4 21 10 0 14 7 11 23 -2 15 6 33 27 55 38 39 51
40 68 5 44 -98 231 -98 305 -1 79 105 43 243 -75 293 -133 55 -284 -57 -265
-196 3 -22 1 -37 -4 -33 -14 8 -10 98 6 137 20 49 71 95 125 112 57 17 61 17
117 3z m-15627 -43 c-24 -25 -46 -45 -49 -45 -3 0 15 20 39 45 24 25 46 45 49
45 3 0 -15 -20 -39 -45z m-539 -22 c13 -16 12 -17 -3 -4 -10 7 -18 15 -18 17
0 8 8 3 21 -13z m69 -50 c0 -7 -39 17 -46 28 -3 6 5 3 20 -6 14 -10 26 -19 26
-22z m410 22 c0 -2 -13 -11 -30 -20 -38 -19 -40 -11 -2 9 31 17 32 18 32 11z
m15716 -29 c29 -29 34 -41 34 -81 0 -40 -5 -52 -35 -82 -33 -33 -39 -35 -86
-31 -74 7 -104 40 -104 114 0 50 3 58 33 85 26 23 42 29 78 29 39 0 51 -5 80
-34z m-16086 -6 c8 -5 11 -10 5 -10 -5 0 -17 5 -25 10 -8 5 -10 10 -5 10 6 0
17 -5 25 -10z m47 -16 c-3 -3 -12 -4 -19 -1 -8 3 -5 6 6 6 11 1 17 -2 13 -5z
m220 0 c-3 -3 -12 -4 -19 -1 -8 3 -5 6 6 6 11 1 17 -2 13 -5z m-164 -11 c-7
-2 -21 -2 -30 0 -10 3 -4 5 12 5 17 0 24 -2 18 -5z m120 0 c-7 -2 -19 -2 -25
0 -7 3 -2 5 12 5 14 0 19 -2 13 -5z m8476 -20 c-4 -10 -70 -55 -75 -51 -5 6 9
22 40 46 28 21 41 23 35 5z m-8334 -85 c-13 -82 -75 -494 -75 -505 0 -10 -33
-13 -134 -13 l-133 0 -13 128 c-16 163 -37 397 -36 398 1 2 98 -15 136 -24 22
-4 22 -6 5 -9 -35 -7 -64 -26 -70 -44 -8 -26 25 -392 37 -406 6 -8 35 -13 73
-13 38 0 67 5 73 13 5 6 21 100 35 207 l24 195 -24 23 c-13 12 -35 22 -49 22
-13 0 -24 5 -24 10 0 6 15 10 33 10 17 1 55 9 82 20 67 25 67 25 60 -12z
m8389 6 c3 -9 10 -13 15 -9 12 7 41 -33 41 -57 0 -9 -14 -26 -31 -38 -35 -26
-51 -20 -20 7 30 26 26 36 -9 18 -16 -8 -34 -15 -40 -15 -17 0 -11 18 8 23 13
3 11 6 -10 15 -34 14 -37 44 -5 65 25 16 43 13 51 -9z m182 -68 c-6 -22 -22
-40 -43 -51 -17 -10 -42 -27 -54 -38 -22 -21 -96 -40 -104 -27 -7 12 182 150
205 150 4 0 2 -15 -4 -34z m-10359 -1 c3 -9 4 -18 1 -20 -5 -5 -582 -145 -584
-142 -1 1 -4 11 -6 22 -3 17 12 23 137 53 477 116 443 110 452 87z m15875 -25
c37 -5 92 -22 123 -36 63 -30 162 -122 171 -159 3 -14 10 -25 14 -25 4 0 15
-28 23 -62 19 -74 28 -128 23 -128 -3 0 -11 -2 -19 -6 -11 -4 -16 8 -21 55
-23 206 -234 361 -438 322 -126 -25 -229 -104 -285 -220 -35 -71 -44 -203 -19
-279 22 -64 121 -166 202 -207 54 -28 67 -30 164 -30 96 0 110 3 165 29 108
53 180 147 206 266 14 68 33 66 26 -3 -11 -113 -99 -235 -208 -289 -209 -104
-441 -21 -548 197 -64 130 -50 289 36 407 59 81 170 152 262 168 25 4 48 8 51
9 3 0 35 -4 72 -9z m1267 -102 c42 -25 77 -59 73 -71 -1 -5 2 -6 7 -3 5 3 14
0 20 -7 8 -11 5 -13 -17 -10 -24 3 -34 -7 -87 -78 -33 -45 -64 -87 -70 -93 -5
-6 -22 -27 -37 -48 -15 -20 -34 -43 -42 -50 -21 -21 -48 -77 -41 -88 12 -20
-17 -20 -62 0 -65 29 -75 11 -19 -35 48 -39 58 -56 29 -49 -11 3 -31 -8 -50
-26 -31 -29 -34 -30 -60 -16 -16 9 -45 31 -66 49 l-38 33 12 52 c7 29 16 52
21 52 5 0 26 -12 48 -26 44 -29 64 -26 35 6 -12 13 -14 20 -6 20 16 0 50 40
51 58 0 7 11 28 25 46 14 18 25 38 25 44 0 7 4 12 8 12 4 0 25 30 46 68 34 59
83 130 116 170 15 18 38 15 79 -10z m-17359 -16 c37 -30 34 -100 -6 -139 -16
-17 -59 -17 -72 0 -14 17 -24 100 -16 131 5 21 12 26 39 26 18 0 43 -8 55 -18z
m3295 -72 c4 -28 12 -50 19 -50 8 0 11 -20 8 -67 -5 -95 -4 -95 -59 -91 l-48
3 -3 65 c-2 35 -8 70 -14 77 -8 10 -4 13 16 13 22 0 26 4 21 19 -3 11 -1 22 5
26 5 3 10 17 10 31 0 17 6 24 19 24 15 0 20 -10 26 -50z m7255 11 c-1 -13 -3
-13 -15 3 -19 26 -19 42 0 26 8 -7 15 -20 15 -29z m-2151 4 c221 -53 381 -256
381 -485 0 -150 -73 -301 -185 -382 l-39 -29 -13 43 c-15 52 -16 61 -3 53 14
-9 67 22 85 49 14 20 16 63 13 291 l-3 267 -33 29 c-34 31 -66 36 -105 18 -38
-17 -57 -60 -57 -127 0 -86 -9 -122 -30 -122 -16 0 -19 12 -22 94 -2 76 -7
100 -24 122 -38 51 -120 51 -158 1 -17 -22 -22 -48 -26 -120 -5 -84 -7 -92
-25 -92 -18 0 -20 8 -25 92 -4 72 -9 98 -26 119 -43 58 -126 50 -162 -15 -21
-37 -22 -50 -22 -281 0 -208 2 -246 17 -270 18 -31 51 -50 88 -50 14 0 25 -1
25 -2 -1 -22 -30 -93 -38 -96 -19 -6 -137 123 -165 179 -100 205 -68 417 86
574 129 132 293 180 466 140z m2237 -122 c-4 -4 -16 3 -26 17 -29 37 -24 49 7
18 15 -15 23 -31 19 -35z m147 -44 c25 -29 17 -42 -48 -79 -54 -31 -57 -31
-71 -14 -24 32 -12 57 41 86 60 33 56 33 78 7z m-4323 -78 c23 -43 6 -91 -32
-91 -10 0 -18 1 -18 3 0 1 -4 16 -9 32 -4 17 -4 40 0 53 10 27 44 29 59 3z
m-3178 -3 c9 -7 18 -28 20 -46 4 -28 1 -33 -21 -39 -14 -3 -33 -11 -41 -18 -8
-8 -32 -16 -52 -20 -34 -6 -38 -5 -38 13 0 11 -6 23 -12 25 -22 9 14 27 54 27
33 0 38 4 44 28 11 47 18 51 46 30z m3515 0 c17 -13 17 -74 1 -85 -7 -4 -29
-8 -48 -10 -19 -1 -66 -5 -105 -8 -149 -14 -139 -16 -149 37 -5 27 -6 51 -3
55 7 6 43 7 92 2 23 -2 115 7 120 13 9 8 81 6 92 -4z m560 -10 c-3 -8 -6 -5
-6 6 -1 11 2 17 5 13 3 -3 4 -12 1 -19z m-976 -34 c5 -3 9 -16 9 -30 0 -21 -4
-24 -20 -19 -11 4 -20 2 -20 -4 0 -12 -48 -15 -74 -5 -15 6 -14 40 2 68 5 8
86 1 103 -10z m492 9 c-7 -2 -19 -2 -25 0 -7 3 -2 5 12 5 14 0 19 -2 13 -5z
m4001 -12 c23 -25 17 -33 -49 -71 -49 -28 -57 -30 -70 -16 -23 23 -18 53 13
74 52 37 81 40 106 13z m-3504 -8 c21 -18 27 -43 10 -43 -6 0 -8 -10 -4 -24 4
-16 1 -25 -9 -29 -10 -4 -13 -13 -10 -26 4 -15 1 -21 -11 -21 -14 0 -14 -3 -4
-20 11 -17 11 -22 0 -29 -8 -5 -11 -17 -7 -32 10 -38 -11 -77 -50 -96 -19 -9
-37 -25 -41 -35 -6 -20 -30 -23 -69 -8 -40 15 -31 54 13 58 31 3 43 17 21 24
-14 5 7 78 22 78 5 0 9 10 9 23 0 13 4 27 9 33 4 5 14 38 21 74 6 36 17 71 22
78 15 17 54 15 78 -5z m-190 -7 c0 -3 -4 -8 -10 -11 -5 -3 -10 -1 -10 4 0 6 5
11 10 11 6 0 10 -2 10 -4z m-200 -15 c0 -5 -7 -12 -16 -15 -14 -5 -15 -4 -4 9
14 17 20 19 20 6z m-52 -21 c29 -27 31 -84 3 -75 -13 4 -20 0 -24 -16 -3 -12
-10 -18 -16 -14 -6 3 -14 -1 -17 -9 -3 -9 -14 -16 -24 -16 -10 0 -20 -10 -23
-21 -4 -15 -11 -20 -21 -16 -10 4 -16 1 -16 -7 0 -7 -14 -25 -31 -41 -30 -26
-33 -27 -58 -12 -23 14 -27 14 -53 -4 -22 -16 -32 -18 -48 -9 -31 17 -45 60
-25 79 14 15 18 14 45 -1 29 -16 30 -16 30 1 0 22 40 51 70 51 11 0 20 5 20
10 0 6 7 13 15 17 17 6 67 46 99 79 27 28 47 29 74 4z m222 -12 c24 -26 28
-63 5 -54 -11 4 -15 -1 -15 -19 0 -16 -6 -25 -16 -25 -11 0 -15 -6 -11 -20 4
-15 0 -20 -15 -20 -14 0 -18 -5 -13 -19 4 -13 0 -20 -14 -24 -14 -3 -18 -11
-14 -25 8 -31 -24 -72 -57 -72 -15 0 -39 -9 -53 -20 -34 -27 -59 -25 -87 5
-20 21 -21 27 -9 41 9 11 23 14 45 11 27 -5 31 -3 27 13 -6 22 24 70 43 70 7
0 24 21 36 46 38 76 42 84 51 84 4 0 12 11 17 25 12 32 51 33 80 3z m-3852
-75 c2 -24 10 -34 30 -42 26 -9 26 -9 4 -10 -15 -1 -26 -9 -29 -21 -7 -27 -44
-30 -73 -5 -8 7 -28 17 -45 22 l-30 10 43 7 c29 4 42 11 39 19 -2 6 0 22 4 35
14 37 53 26 57 -15z m7367 -11 c-6 -6 -34 28 -35 42 0 5 9 -1 20 -14 11 -13
18 -26 15 -28z m297 24 c20 -27 20 -27 -56 -71 l-49 -28 -19 23 c-23 28 -23
33 2 55 53 48 97 56 122 21z m6019 -82 c19 -21 20 -26 9 -54 -7 -16 -18 -30
-24 -30 -7 0 -30 18 -51 41 l-40 40 22 19 c27 22 53 17 84 -16z m-4536 -4 c-3
-5 -10 -10 -16 -10 -5 0 -9 5 -9 10 0 6 7 10 16 10 8 0 12 -4 9 -10z m-1402
-36 c11 -14 17 -27 15 -28 -12 -12 -107 -66 -114 -66 -13 0 -34 49 -28 65 6
14 80 55 99 55 6 0 18 -12 28 -26z m-2604 -75 c0 -43 -3 -80 -7 -83 -20 -12
-46 27 -53 81 -8 52 -6 60 12 75 36 31 48 14 48 -73z m-258 64 c3 -74 -4 -129
-18 -140 -27 -21 -33 -15 -33 33 0 25 -5 54 -10 65 -15 27 4 59 35 59 17 0 25
-6 26 -17z m9759 -24 c41 -22 64 -37 50 -33 -28 7 -66 26 -114 55 -55 33 -14
19 64 -22z m-7190 21 c0 -5 -2 -10 -4 -10 -3 0 -8 5 -11 10 -3 6 -1 10 4 10 6
0 11 -4 11 -10z m-7450 -35 c0 -31 3 -35 25 -35 31 0 31 -3 1 -34 -29 -33 -80
-35 -96 -6 -6 11 -17 20 -25 20 -8 0 -15 5 -15 10 0 6 9 10 20 10 11 0 21 5
21 10 1 6 3 15 4 20 1 6 3 17 4 25 1 10 12 15 31 15 28 0 30 -3 30 -35z m3265
-66 c-25 -22 -40 -29 -53 -23 -9 4 -20 7 -23 6 -3 0 -6 7 -6 16 0 21 35 62 54
62 7 0 13 6 13 13 0 6 12 -1 25 -16 l25 -28 -35 -30z m10344 24 c9 -18 -16
-73 -35 -73 -5 0 -25 15 -42 33 -34 35 -35 60 -3 84 12 9 22 7 43 -8 15 -11
32 -27 37 -36z m-6081 -31 c9 -14 10 -22 3 -22 -6 0 -11 4 -11 9 0 5 -8 17
-17 27 -12 12 -13 16 -4 13 8 -3 21 -15 29 -27z m300 5 c21 -22 21 -24 5 -39
-19 -16 -93 -58 -104 -58 -7 0 -29 46 -29 60 0 10 79 60 96 60 6 0 20 -10 32
-23z m6801 -5 c20 -8 31 -17 24 -19 -6 -2 -33 7 -60 22 -49 26 -28 25 36 -3z
m-6129 -12 c0 -5 -7 -10 -15 -10 -8 0 -15 5 -15 10 0 6 7 10 15 10 8 0 15 -4
15 -10z m-4910 -28 l23 -18 -24 -41 c-23 -40 -24 -41 -51 -27 -33 17 -35 33
-8 62 11 12 20 26 20 32 0 15 15 12 40 -8z m11015 -18 c39 -18 59 -31 45 -28
-30 7 -130 53 -130 59 0 9 15 4 85 -31z m90 26 c3 -6 -1 -7 -9 -4 -18 7 -21
14 -7 14 6 0 13 -4 16 -10z m-14697 -52 c2 -22 9 -38 16 -38 9 0 11 -19 8 -67
-5 -93 -5 -93 -57 -93 -25 0 -45 1 -45 3 -1 1 -4 31 -7 67 -3 36 -10 71 -15
78 -8 9 -4 12 15 12 21 0 25 4 22 22 -8 40 4 59 33 56 23 -3 27 -8 30 -40z
m3942 32 c9 -6 11 -13 5 -17 -5 -5 -10 -14 -11 -20 -1 -7 -2 -22 -2 -33 -2
-20 -25 -26 -56 -14 -20 8 -20 18 0 60 16 34 37 42 64 24z m9561 -19 c29 -29
29 -30 11 -60 -9 -17 -20 -31 -24 -31 -4 0 -23 14 -42 31 -31 27 -34 33 -23
52 25 45 39 47 78 8z m1087 -52 c63 -33 56 -39 -10 -10 -47 21 -99 57 -64 45
10 -4 43 -20 74 -35z m-6964 -18 c-5 -6 -33 31 -33 44 -1 6 8 -1 19 -15 10
-14 17 -27 14 -29z m290 22 c19 -26 19 -26 0 -40 -10 -8 -36 -24 -57 -34 -37
-20 -39 -20 -53 -2 -24 31 -12 56 36 81 24 12 47 22 50 22 3 0 14 -12 24 -27z
m-1584 -73 c0 -47 4 -64 20 -80 11 -11 20 -24 20 -28 0 -12 41 -30 87 -37 104
-16 153 -30 150 -41 -1 -7 7 -20 18 -28 18 -14 10 -15 -93 -16 -96 0 -126 -4
-190 -26 -100 -34 -151 -65 -202 -120 -61 -66 -90 -135 -90 -215 0 -36 3 -69
6 -72 4 -4 20 5 37 19 16 14 48 34 71 46 22 11 44 25 47 30 6 9 152 28 234 30
63 1 115 -10 112 -25 -1 -6 12 -14 28 -18 20 -4 6 -7 -47 -8 -142 -2 -259 -71
-257 -151 0 -23 1 -23 9 -5 4 11 20 31 34 45 l27 24 35 -19 c98 -53 229 -250
229 -345 0 -95 -131 -292 -229 -345 l-35 -19 -27 24 c-14 14 -30 34 -34 45 -8
18 -9 18 -9 -5 -2 -80 115 -149 257 -151 53 -1 67 -4 47 -8 -16 -4 -29 -12
-28 -18 3 -15 -49 -26 -112 -25 -100 2 -226 21 -240 36 -8 8 -24 18 -35 21
-11 3 -20 11 -20 16 0 6 -4 8 -8 5 -5 -3 -25 8 -44 24 -19 16 -38 26 -42 23
-3 -3 -6 -36 -6 -72 0 -80 29 -149 90 -215 51 -55 102 -86 202 -120 64 -22 94
-26 190 -26 103 -1 111 -2 93 -16 -11 -8 -19 -21 -18 -28 3 -11 -46 -25 -150
-41 -46 -7 -87 -25 -87 -37 0 -4 -9 -17 -20 -28 -16 -16 -20 -33 -20 -81 l0
-60 -47 7 c-74 10 -201 53 -275 91 -80 42 -181 127 -223 188 -16 24 -36 45
-42 45 -28 0 -165 62 -239 106 -52 31 -113 82 -179 148 -134 135 -200 249
-251 433 l-23 83 23 82 c66 237 208 435 404 565 78 51 233 123 265 123 7 0 21
14 32 32 23 39 105 120 160 158 82 56 210 108 316 129 82 16 79 18 79 -49z
m1688 13 c5 -16 13 -35 17 -44 4 -12 -11 -29 -60 -64 l-67 -47 -49 22 -49 23
33 29 c34 31 147 108 158 108 4 0 12 -12 17 -27z m5390 -6 c27 -25 28 -42 3
-73 l-19 -24 -26 21 c-43 34 -49 53 -25 83 21 27 29 26 67 -7z m-5705 -52 c10
-14 14 -25 10 -25 -4 0 -16 12 -26 25 -10 14 -14 25 -10 25 4 0 16 -12 26 -25z
m-2684 -7 c8 -22 3 -63 -7 -54 -2 3 -5 16 -6 28 -1 14 -8 24 -21 26 -15 3 -17
1 -9 -8 12 -12 -3 -60 -18 -60 -13 0 -9 65 4 78 19 19 48 14 57 -10z m-151 -8
c4 -12 3 -13 -10 -3 -8 7 -18 10 -21 6 -4 -3 -7 -1 -7 6 0 17 32 10 38 -9z
m9802 6 c0 -2 -7 -7 -16 -10 -8 -3 -12 -2 -9 4 6 10 25 14 25 6z m-1361 -52
c36 -30 38 -43 13 -75 -18 -21 -20 -21 -41 -7 -13 9 -29 26 -38 37 -13 19 -12
23 1 37 9 8 16 20 16 25 0 16 17 10 49 -17z m-13321 -6 c7 -7 12 -25 12 -40 0
-28 1 -28 63 -28 34 0 69 -5 77 -10 12 -8 9 -10 -13 -10 -16 0 -40 -9 -54 -20
-18 -14 -41 -20 -78 -20 -42 0 -55 4 -73 25 -27 31 -27 35 -2 35 15 0 20 7 20
28 0 26 15 52 30 52 3 0 11 -5 18 -12z m-1058 -213 l0 -215 -497 2 -498 3 0
207 c0 199 1 207 20 211 11 2 235 5 498 6 l477 1 0 -215z m8774 133 c-5 -7 -2
-9 7 -6 9 4 21 -5 31 -23 22 -37 10 -37 -25 -1 -29 30 -33 42 -16 42 5 0 7 -5
3 -12z m492 -128 c54 -74 101 -137 104 -140 10 -7 32 -51 28 -54 -2 -1 -19
-15 -39 -29 -46 -35 -59 -34 -87 6 -13 17 -64 86 -113 152 -49 66 -89 125 -89
132 0 12 80 74 91 70 4 -1 51 -63 105 -137z m5021 98 c38 -37 39 -45 13 -76
-22 -26 -38 -20 -79 30 l-23 29 23 25 c12 13 25 24 28 24 3 0 20 -14 38 -32z
m-13219 -73 c2 -17 9 -36 15 -43 7 -9 7 -16 1 -20 -6 -4 -14 -15 -17 -25 -11
-30 -29 -15 -44 36 -10 35 -11 52 -3 68 16 29 44 20 48 -16z m750 -22 c-2 -10
-7 -21 -13 -25 -6 -5 -5 -8 3 -8 6 0 12 -9 12 -20 0 -24 66 -94 96 -104 18 -6
81 -67 119 -118 15 -19 70 -135 90 -188 10 -25 21 -54 25 -65 4 -11 15 -47 25
-80 9 -33 20 -68 26 -77 5 -10 9 -27 9 -38 0 -11 -4 -28 -9 -38 -6 -9 -17 -44
-26 -77 -10 -33 -21 -69 -25 -80 -4 -11 -15 -40 -25 -65 -20 -53 -75 -169 -90
-188 -38 -51 -101 -112 -119 -118 -30 -10 -96 -80 -96 -104 0 -11 -6 -20 -12
-20 -8 0 -9 -3 -3 -8 15 -11 17 -32 2 -32 -6 0 -29 5 -49 11 -40 11 -51 29
-18 29 14 0 20 7 20 23 0 12 7 31 15 41 13 17 13 22 1 35 -7 9 -16 36 -20 60
-9 60 -81 155 -131 175 -9 3 -19 15 -22 25 -3 11 -10 18 -17 15 -18 -7 -84 87
-106 150 -15 42 -20 82 -20 166 0 84 5 124 20 166 22 63 88 157 106 150 7 -3
14 4 17 15 3 10 13 22 22 25 50 20 122 115 131 175 4 24 13 51 20 60 12 13 12
18 -1 35 -8 10 -15 29 -15 42 0 15 -6 22 -20 22 -36 0 -21 19 28 33 26 8 48
15 50 16 2 1 2 -7 0 -16z m6211 -55 c20 -12 54 -39 76 -60 22 -21 49 -38 61
-38 12 0 38 -11 58 -25 20 -14 40 -25 44 -25 5 0 50 -23 102 -50 52 -28 115
-60 140 -72 25 -12 48 -26 52 -32 5 -7 8 -7 8 2 0 6 6 12 14 12 8 0 16 10 18
23 3 16 9 8 21 -32 31 -99 19 -274 -24 -353 -6 -12 -6 -24 0 -35 43 -80 55
-255 24 -354 -12 -40 -18 -48 -21 -31 -2 12 -10 22 -18 22 -8 0 -14 6 -14 13
0 8 -3 8 -8 1 -4 -6 -27 -20 -52 -32 -25 -12 -88 -44 -140 -72 -52 -27 -97
-50 -102 -50 -4 0 -24 -11 -44 -25 -20 -14 -46 -25 -58 -25 -12 0 -39 -17 -61
-38 -62 -59 -107 -83 -143 -76 -20 4 -34 14 -37 28 -4 11 -11 31 -18 44 -9 18
-8 25 2 32 23 14 16 81 -13 124 l-26 39 25 25 c24 24 34 62 16 62 -5 0 -14 -7
-21 -15 -7 -8 -16 -15 -21 -15 -5 0 4 14 21 31 33 36 74 134 65 158 -5 12 -10
6 -19 -21 -41 -118 -181 -206 -332 -211 -49 -1 -112 13 -133 30 -2 1 21 29 53
61 75 77 128 157 161 242 l27 70 -27 70 c-33 85 -86 165 -161 242 -32 32 -55
60 -53 61 21 17 84 31 133 30 151 -5 291 -93 332 -211 9 -27 14 -33 19 -21 9
24 -32 122 -65 158 -17 17 -26 31 -21 31 5 0 14 -7 21 -15 7 -8 16 -15 21 -15
18 0 8 38 -16 62 l-25 25 26 39 c29 43 36 110 13 124 -10 7 -11 14 -2 32 7 13
14 33 18 45 5 19 17 25 59 32 5 0 25 -9 45 -21z m7279 -28 c-7 -10 -14 -17
-17 -15 -4 4 18 35 25 35 2 0 -1 -9 -8 -20z m-1124 -14 c-3 -9 -10 -13 -16
-10 -5 3 -4 12 3 20 15 18 22 13 13 -10z m-13124 -27 c7 -11 9 -26 7 -34 -4
-8 6 -15 26 -20 26 -6 28 -9 12 -13 -11 -2 -30 -15 -42 -29 -19 -19 -26 -22
-43 -13 -20 11 -29 60 -10 60 6 0 10 13 10 28 0 46 21 57 40 21z m14201 -22
l-24 -22 19 27 c10 14 21 24 23 22 3 -3 -6 -15 -18 -27z m-1140 -36 c-13 -23
-40 -45 -47 -38 -8 8 38 67 48 61 4 -3 4 -13 -1 -23z m-6476 -6 c0 -26 -31
-31 -56 -10 -25 23 -15 37 24 33 24 -2 32 -8 32 -23z m7556 -32 c-24 -35 -96
-103 -136 -130 -39 -27 -129 -53 -174 -52 -28 1 -20 5 33 15 100 20 153 49
226 125 73 75 80 81 51 42z m-4327 4 c13 -9 16 -20 11 -40 -8 -29 -9 -30 -42
-21 -26 7 -27 12 -13 48 11 29 19 32 44 13z m3132 -43 c74 -57 75 -57 54 -76
-23 -22 -38 -17 -110 40 -63 50 -72 61 -57 78 20 22 34 17 113 -42z m-2782 21
c17 -13 18 -18 6 -40 -16 -29 -27 -31 -51 -9 -17 15 -17 18 -2 40 18 28 21 28
47 9z m-10170 -21 c10 -4 16 -18 16 -35 0 -20 5 -29 16 -29 8 0 13 -4 10 -8
-3 -5 -6 -39 -7 -76 -2 -61 -4 -67 -25 -72 -13 -4 -35 -3 -48 0 -22 5 -24 10
-24 81 0 59 3 75 14 75 9 0 14 10 14 28 0 39 7 46 34 36z m8376 -8 c0 -10 -71
-59 -76 -53 -3 3 12 17 33 31 39 27 43 29 43 22z m41 -73 c21 -20 39 -40 39
-45 0 -4 -20 -21 -44 -37 l-44 -30 -26 52 -26 52 26 23 c14 12 28 22 30 22 3
0 23 -17 45 -37z m1384 27 c7 -12 -2 -12 -30 0 -19 8 -19 9 2 9 12 1 25 -3 28
-9z m270 -15 c28 -27 31 -38 12 -53 -26 -22 -87 28 -74 62 9 23 34 20 62 -9z
m59 -4 c-2 -3 -12 3 -22 13 -16 17 -16 18 5 5 12 -7 20 -15 17 -18z m-369 -5
c20 -15 15 -43 -10 -52 -21 -9 -65 23 -65 46 0 15 7 20 28 20 16 0 37 -6 47
-14z m752 -41 c6 -17 -22 -44 -45 -45 -22 0 -26 30 -6 45 25 19 43 19 51 0z
m-468 -42 c37 -32 35 -59 -5 -69 -17 -4 -24 -13 -24 -30 0 -15 -6 -24 -15 -24
-8 0 -15 -9 -15 -20 0 -11 -4 -20 -10 -20 -5 0 -10 -8 -10 -18 0 -9 -9 -23
-20 -30 -12 -7 -18 -16 -16 -21 3 -4 -6 -13 -20 -20 -31 -14 -37 -14 -29 -1 3
5 0 7 -9 4 -10 -4 -17 2 -22 20 -5 19 1 35 25 65 17 21 31 44 31 50 0 6 7 11
15 11 8 0 15 7 15 15 0 8 9 19 20 25 11 6 17 16 14 25 -6 15 20 65 34 65 4 0
23 -12 41 -27z m2751 14 c11 3 20 3 20 0 0 -13 -45 -29 -89 -34 -73 -7 -110
-22 -152 -64 -22 -22 -39 -35 -39 -30 0 13 78 81 106 91 14 6 40 10 58 10 21
0 40 8 52 21 10 11 20 16 22 11 2 -6 12 -8 22 -5z m-2360 -25 c0 -15 -2 -15
-10 -2 -13 20 -13 33 0 25 6 -3 10 -14 10 -23z m-1901 -52 c23 -33 41 -63 41
-67 -1 -15 -78 -63 -92 -58 -16 7 -88 105 -88 120 1 12 82 74 92 69 3 -2 25
-31 47 -64z m1238 45 c28 -19 20 -51 -15 -60 -23 -6 -25 -8 -9 -16 21 -12 22
-35 2 -43 -13 -4 -14 -10 -5 -26 9 -16 8 -20 -6 -20 -12 0 -15 -6 -10 -25 5
-18 2 -27 -9 -31 -11 -5 -13 -10 -5 -19 13 -16 2 -25 -32 -25 -17 0 -27 -4
-23 -10 13 -21 -11 -8 -28 15 -13 19 -15 29 -7 45 24 48 28 57 35 90 4 19 13
43 21 54 7 10 10 25 7 32 -3 8 -2 26 1 40 6 22 11 25 34 19 15 -3 37 -13 49
-20z m552 -57 l21 -33 -21 -17 c-12 -10 -30 -18 -40 -18 -10 0 -19 -4 -19 -9
0 -4 -19 -21 -42 -37 -23 -16 -53 -39 -66 -51 -14 -13 -28 -23 -33 -23 -4 0
-14 -3 -22 -6 -19 -7 -50 37 -42 57 3 8 22 24 43 34 20 11 40 24 43 28 7 10
41 30 77 46 12 6 22 17 22 25 0 15 26 35 47 36 6 0 20 -15 32 -32z m-10319
-19 c7 -11 9 -27 6 -35 -4 -10 4 -14 32 -15 20 0 46 -4 57 -9 17 -7 15 -9 -11
-9 -17 -1 -39 -10 -49 -21 -11 -13 -31 -20 -53 -20 l-34 0 7 58 c4 31 9 60 12
65 8 13 22 7 33 -14z m12767 -29 c17 -10 37 -29 44 -41 18 -34 15 -96 -6 -119
-17 -19 -17 -21 0 -40 21 -23 24 -85 6 -119 -16 -30 -69 -61 -104 -61 -58 0
-117 57 -117 114 0 29 19 76 31 76 5 0 0 15 -11 33 -24 39 -25 80 -4 116 35
59 103 77 161 41z m140 -82 c-9 -101 -9 -95 0 -196 6 -54 5 -81 -2 -79 -9 3
-14 60 -15 175 0 32 6 167 9 177 0 3 4 5 9 5 4 0 4 -37 -1 -82z m637 -20 c-41
-58 -62 -83 -49 -58 14 26 76 110 82 110 2 0 -12 -24 -33 -52z m-14226 -14
c18 -12 22 -25 22 -64 0 -39 -4 -52 -22 -64 -56 -39 -118 -5 -118 64 0 69 62
103 118 64z m692 -27 c0 -13 5 -28 12 -35 9 -9 9 -12 0 -12 -7 0 -12 -11 -12
-25 0 -24 -34 -53 -43 -38 -3 5 -5 37 -5 73 0 36 2 68 5 73 9 14 43 -14 43
-36z m-2388 6 c33 -39 7 -103 -43 -103 -48 0 -72 65 -39 105 17 20 64 19 82
-2z m12880 -18 c17 -38 -3 -77 -38 -71 -14 3 -31 9 -37 14 -7 5 -56 9 -110 8
-68 -1 -102 3 -109 12 -23 27 7 37 109 36 67 -1 104 3 118 12 30 21 54 17 67
-11z m2025 -45 c-10 -15 -12 -11 -13 26 -1 42 -1 43 12 18 11 -21 11 -29 1
-44z m-1799 26 c6 -30 -12 -39 -62 -32 -36 6 -46 11 -46 26 0 33 102 39 108 6z
m-1021 -47 c-3 -10 1 -20 9 -23 10 -4 12 -14 8 -31 -4 -16 -2 -25 6 -25 7 0
10 -8 7 -20 -3 -12 1 -24 11 -29 14 -8 15 -13 5 -30 -13 -21 -2 -38 17 -26 6
3 10 3 10 -2 0 -4 3 -18 6 -29 5 -18 -1 -24 -41 -40 -55 -20 -65 -13 -65 48 0
20 -4 39 -9 42 -5 3 -12 22 -16 42 -3 20 -11 45 -16 55 -5 11 -14 28 -20 40
-16 32 11 56 57 51 29 -4 35 -8 31 -23z m3837 -39 c31 -44 32 -48 8 -20 -17
19 -38 49 -48 65 -23 42 -5 21 40 -45z m-3425 40 c5 0 19 -10 33 -22 38 -35
86 -68 98 -68 5 0 10 -7 10 -15 0 -8 9 -15 19 -15 10 0 28 -8 40 -17 l21 -18
-21 -32 c-12 -18 -25 -33 -31 -33 -19 0 -48 21 -48 36 0 8 -10 19 -22 25 -36
16 -70 36 -77 46 -3 4 -23 17 -43 28 -21 10 -40 26 -43 34 -8 20 23 64 42 57
8 -3 18 -6 22 -6z m-215 -11 c14 -7 23 -16 20 -20 -2 -5 4 -14 16 -21 11 -7
20 -21 20 -30 0 -10 5 -18 10 -18 6 0 10 -9 10 -20 0 -11 7 -20 15 -20 9 0 15
-9 15 -25 0 -15 6 -25 14 -25 16 0 46 -26 46 -40 0 -5 -16 -21 -36 -37 l-36
-27 -20 24 c-11 13 -17 32 -15 42 3 11 -2 22 -14 28 -10 6 -19 17 -19 25 0 8
-7 15 -15 15 -8 0 -15 5 -15 11 0 6 -14 29 -31 50 -24 30 -30 46 -25 65 5 18
12 24 22 20 9 -3 12 -1 9 4 -8 13 -2 13 29 -1z m2603 -41 c-3 -8 -6 -5 -6 6
-1 11 2 17 5 13 3 -3 4 -12 1 -19z m-12472 -28 c10 -11 32 -20 49 -21 26 0 28
-2 11 -9 -11 -5 -36 -9 -57 -9 -29 -1 -35 -4 -32 -18 6 -24 -21 -61 -34 -48
-6 6 -13 36 -17 68 l-7 57 34 0 c22 0 42 -7 53 -20z m8496 -17 c21 -16 39 -32
39 -36 0 -8 -50 -84 -78 -119 -13 -16 -17 -15 -58 15 -24 18 -43 37 -44 43 0
19 83 123 98 124 2 0 21 -12 43 -27z m4102 -128 c20 -8 59 -16 86 -17 32 -2
59 -9 73 -21 l23 -19 -22 5 c-13 3 -23 0 -23 -6 0 -6 -10 -1 -23 11 -14 13
-36 22 -54 22 -18 0 -43 4 -57 10 -29 11 -106 78 -106 92 0 5 15 -7 34 -26 18
-20 49 -43 69 -51z m-12616 17 c16 -10 22 -152 6 -152 -8 0 -13 -12 -13 -29 0
-17 -6 -31 -16 -35 -23 -9 -34 2 -34 34 0 16 -7 30 -16 34 -12 5 -15 20 -13
73 1 38 7 71 13 75 14 10 58 10 73 0z m8433 -90 c0 -5 -18 -25 -40 -45 -32
-31 -43 -36 -58 -28 -40 21 -42 34 -15 89 l25 51 44 -30 c24 -16 44 -33 44
-37z m1976 32 c-4 -9 -9 -15 -11 -12 -3 3 -3 13 1 22 4 9 9 15 11 12 3 -3 3
-13 -1 -22z m68 -9 c20 -15 16 -45 -6 -45 -23 1 -51 28 -45 45 8 19 26 19 51
0z m3420 -20 c66 -17 123 -54 181 -117 82 -88 88 -100 10 -22 -87 88 -135 116
-235 138 -36 8 -54 14 -40 15 14 1 52 -6 84 -14z m-4150 -17 c15 -24 -10 -48
-51 -48 -30 0 -34 3 -31 22 3 22 43 51 62 45 5 -2 14 -10 20 -19z m317 -27
c-23 -43 -81 -52 -81 -13 0 36 55 69 78 47 11 -10 11 -17 3 -34z m2920 -10
c19 -18 19 -19 -55 -75 -42 -31 -80 -56 -86 -56 -6 0 -18 7 -26 15 -14 13 -12
18 18 45 30 28 116 90 125 90 2 0 13 -8 24 -19z m-2872 -4 c-2 -1 -13 -9 -24
-17 -19 -14 -19 -14 -6 3 7 9 18 17 24 17 6 0 8 -1 6 -3z m-1785 -37 c22 -17
35 -30 30 -30 -11 0 -84 48 -84 55 0 11 17 3 54 -25z m1446 20 c-8 -5 -22 -9
-30 -9 -10 0 -8 3 5 9 27 12 43 12 25 0z m380 -29 c14 -28 13 -34 -12 -50 -19
-12 -23 -11 -39 10 -16 22 -16 25 -2 41 21 23 40 23 53 -1z m-345 -28 c5 -20
2 -31 -11 -40 -25 -18 -29 -17 -42 12 -16 35 -15 43 6 48 34 9 40 7 47 -20z
m-1506 -45 c20 -14 21 -19 10 -40 -6 -12 -15 -25 -18 -28 -6 -4 -106 -141
-194 -264 -13 -19 -15 -18 -60 12 -25 18 -48 36 -50 40 -3 4 36 62 87 129 50
68 104 141 119 163 l29 41 27 -18 c15 -10 38 -25 50 -35z m-8309 2 c6 -10 20
-20 32 -23 20 -3 19 -5 -8 -11 -23 -6 -30 -13 -27 -25 5 -21 -21 -56 -35 -47
-7 4 -12 20 -12 37 0 16 -4 29 -10 29 -17 0 -11 48 7 58 21 12 41 5 53 -18z
m-1070 -205 l0 -215 -469 0 c-258 0 -481 3 -497 6 l-29 6 1 201 c1 111 2 205
3 210 0 4 224 7 496 7 l495 0 0 -215z m14109 189 c29 -36 14 -53 -15 -18 -13
16 -23 32 -24 37 0 15 19 6 39 -19z m-6464 -9 c0 -21 -33 -32 -62 -21 -14 6
-14 9 3 27 23 25 59 22 59 -6z m7634 -69 c-2 -2 -13 8 -23 22 l-19 27 24 -22
c12 -12 21 -24 18 -27z m-1089 -40 c0 -5 -7 -3 -15 4 -8 7 -12 17 -9 22 7 10
24 -9 24 -26z m1120 -1 c14 -19 14 -19 -2 -6 -10 7 -18 18 -18 24 0 6 1 8 3 6
1 -2 9 -13 17 -24z m-14243 -12 c4 -10 11 -21 17 -25 6 -4 6 -11 -1 -20 -6 -7
-13 -26 -15 -43 -4 -36 -32 -45 -48 -15 -11 20 -10 27 15 108 6 18 25 15 32
-5z m13234 -85 c26 -32 24 -39 -16 -78 l-35 -34 -25 24 c-14 13 -25 26 -25 30
0 7 70 80 77 80 3 0 13 -10 24 -22z m-5489 -77 c-10 -18 -22 -27 -31 -23 -10
4 -12 1 -6 -8 6 -9 4 -11 -4 -5 -9 5 -5 15 15 36 36 37 48 37 26 0z m-7669 -1
c14 -11 38 -20 54 -20 22 0 25 -2 13 -10 -8 -5 -43 -10 -77 -10 -63 0 -63 0
-63 -29 0 -37 -24 -59 -45 -41 -8 7 -15 25 -15 41 0 22 -5 29 -20 29 -25 0
-25 4 2 35 18 21 31 25 73 25 37 0 60 -6 78 -20z m13257 -54 c14 -26 14 -28
-18 -57 -38 -34 -48 -36 -57 -9 -3 11 -11 20 -16 20 -17 0 -9 18 22 50 36 35
48 35 69 -4z m-5392 -43 c15 -10 34 -23 42 -30 8 -7 25 -20 38 -30 23 -18 23
-18 5 -60 -10 -24 -20 -43 -23 -43 -9 0 -116 73 -154 105 l-36 30 43 22 c52
27 51 27 85 6z m-2962 -27 c9 -18 9 -28 0 -36 -8 -9 -6 -11 9 -8 11 2 21 10
21 18 5 47 4 46 14 28 14 -23 -5 -68 -28 -68 -27 0 -42 20 -42 57 0 39 11 42
26 9z m-4961 -18 c2 -7 5 -43 7 -80 3 -49 1 -68 -8 -68 -7 0 -14 -16 -16 -37
-3 -33 -7 -38 -30 -41 -29 -3 -41 16 -33 56 3 18 -1 22 -22 22 -19 0 -23 3
-15 13 5 6 12 41 15 77 3 36 6 66 7 68 1 9 91 0 95 -10z m13415 -51 c0 -8 -14
-27 -32 -42 l-32 -27 -23 26 c-26 31 -21 50 23 85 l26 21 19 -24 c11 -13 19
-31 19 -39z m-8568 21 c-9 -9 -15 -9 -24 1 -9 10 -9 12 -1 7 6 -3 15 -1 18 5
4 5 10 8 13 4 3 -3 0 -11 -6 -17z m2841 -3 c-10 -13 -22 -25 -26 -25 -4 0 0
11 10 25 10 13 22 25 26 25 4 0 0 -11 -10 -25z m6962 7 c-3 -3 -11 0 -18 7 -9
10 -8 11 6 5 10 -3 15 -9 12 -12z m-6787 -62 c28 -17 52 -34 52 -38 -1 -4 -10
-18 -21 -31 l-20 -24 -45 21 c-24 12 -47 29 -51 38 -5 15 14 64 26 64 3 0 30
-14 59 -30z m5634 -51 c18 -30 18 -31 -11 -60 -39 -39 -53 -37 -78 8 -11 19
-8 25 23 52 19 17 38 31 42 31 4 0 15 -14 24 -31z m1076 -8 c-73 -37 -97 -46
-82 -31 16 16 106 59 123 60 8 0 -10 -13 -41 -29z m-10998 -83 c-25 -20 -40
-23 -40 -8 0 6 -9 20 -20 32 -27 29 -25 45 7 62 27 14 28 13 52 -27 l24 -40
-23 -19z m342 82 c0 -11 1 -26 2 -32 1 -7 6 -16 11 -20 12 -9 -12 -28 -36 -28
-15 0 -49 54 -49 78 0 12 17 20 48 21 15 1 22 -5 24 -19z m3682 -5 c-9 -14
-19 -24 -21 -21 -6 6 20 46 30 46 4 0 0 -11 -9 -25z m188 -61 c49 -31 51 -37
22 -65 l-25 -23 -45 24 c-55 30 -61 42 -40 75 18 27 28 26 88 -11z m6799 0
c-40 -19 -76 -33 -78 -30 -7 7 120 64 142 64 6 0 -23 -15 -64 -34z m-9738 -26
c11 -9 16 -30 17 -68 3 -89 2 -90 -25 -90 -31 0 -50 32 -35 59 5 11 10 40 10
65 0 48 6 54 33 34z m276 -77 c0 -87 -12 -104 -48 -73 -18 15 -20 23 -12 75 7
54 33 93 53 81 4 -3 7 -40 7 -83z m8464 58 l17 -31 -35 -34 c-31 -29 -39 -32
-55 -22 -33 21 -32 50 2 85 18 18 37 33 42 33 6 0 19 -14 29 -31z m1092 21
c-3 -5 -12 -10 -18 -10 -7 0 -6 4 3 10 19 12 23 12 15 0z m-14669 -36 c30 -31
30 -34 -1 -34 -22 0 -25 -4 -25 -35 0 -32 -2 -35 -30 -35 -19 0 -30 5 -31 15
-1 8 -3 20 -4 25 -1 6 -3 15 -4 20 0 6 -10 10 -21 10 -11 0 -20 5 -20 10 0 6
7 10 15 10 8 0 19 9 25 20 16 29 67 27 96 -6z m3242 -5 c33 -29 33 -31 16 -50
-20 -22 -47 -18 -81 13 -19 18 -30 63 -12 52 4 -2 10 0 14 6 10 17 28 11 63
-21z m4260 9 c-8 -12 -21 -24 -29 -27 -9 -3 -8 1 4 13 9 10 17 22 17 27 0 5 5
9 11 9 7 0 6 -8 -3 -22z m972 12 c0 -5 -7 -10 -15 -10 -8 0 -15 5 -15 10 0 6
7 10 15 10 8 0 15 -4 15 -10z m6160 5 c0 -6 -56 -30 -91 -39 -13 -4 -4 5 21
18 43 24 70 32 70 21z m-6954 -77 c30 -18 54 -35 54 -38 -1 -3 -9 -16 -20 -28
-18 -21 -23 -23 -52 -13 -18 7 -44 20 -56 31 -22 18 -23 22 -10 50 7 16 17 30
21 30 5 0 33 -15 63 -32z m6930 -29 c-43 -22 -80 -38 -82 -36 -6 5 135 77 150
77 6 -1 -24 -19 -68 -41z"/>
<path d="M14501 5070 c-108 -15 -196 -38 -303 -80 -516 -199 -845 -724 -798
-1271 45 -508 386 -935 874 -1094 136 -44 220 -57 383 -57 258 -2 510 74 718
215 75 51 223 193 282 270 111 147 202 355 238 547 24 122 24 332 1 448 -75
389 -323 721 -666 892 -113 56 -188 83 -312 111 -106 23 -318 33 -417 19z
m341 -105 c144 -23 224 -48 338 -105 117 -58 150 -78 222 -136 222 -178 359
-391 429 -664 31 -123 38 -335 14 -467 -45 -253 -149 -449 -339 -639 -193
-192 -408 -302 -670 -340 -509 -75 -1006 184 -1235 644 -156 311 -159 711 -10
1031 163 350 502 611 869 671 41 6 82 13 90 15 44 8 216 3 292 -10z"/>
<path d="M14530 4949 c-431 -44 -818 -358 -959 -777 -199 -590 117 -1234 709
-1446 236 -85 506 -87 753 -5 458 152 777 597 777 1083 0 586 -433 1073 -1020
1145 -93 12 -148 12 -260 0z m553 -95 c34 -14 91 -42 127 -61 78 -43 220 -151
220 -167 0 -21 -58 -82 -177 -187 -162 -142 -313 -290 -307 -301 3 -4 9 -6 14
-3 5 3 12 0 16 -6 4 -8 3 -9 -4 -5 -20 12 -13 -8 11 -30 13 -12 35 -45 51 -74
27 -49 28 -55 15 -92 -20 -61 -29 -55 -29 21 0 60 -4 74 -25 99 -32 38 -74 48
-131 32 -32 -9 -47 -10 -57 -2 -21 18 -52 -11 -78 -73 -12 -30 -25 -55 -28
-55 -4 0 -7 27 -7 59 -1 49 -6 67 -27 95 -15 19 -27 41 -27 50 0 25 -50 56
-90 56 -37 0 -95 -34 -85 -49 2 -4 -9 -22 -26 -39 -17 -17 -39 -53 -49 -79
l-19 -48 -1 60 c-3 115 -13 136 -60 118 -34 -13 -36 -11 -15 10 12 13 5 23
-58 83 -40 38 -108 101 -151 139 -141 124 -187 168 -198 189 -9 17 -4 26 38
64 27 24 75 62 107 84 69 47 229 125 273 134 27 5 32 3 38 -18 25 -86 41 -153
71 -298 18 -91 43 -204 56 -253 20 -80 23 -87 42 -81 60 19 158 20 272 2 16
-2 23 7 37 51 29 91 60 250 54 284 -4 22 -3 26 2 13 7 -15 12 -5 21 45 7 35
24 106 37 157 13 52 22 98 19 102 -10 15 66 0 128 -26z m-166 -96 c-3 -8 -6
-5 -6 6 -1 11 2 17 5 13 3 -3 4 -12 1 -19z m-30 -130 c-3 -8 -6 -5 -6 6 -1 11
2 17 5 13 3 -3 4 -12 1 -19z m-60 -290 c-3 -8 -6 -5 -6 6 -1 11 2 17 5 13 3
-3 4 -12 1 -19z m-22 -78 c-6 -20 -11 -21 -63 -13 -70 10 -110 10 -187 0 -49
-5 -55 -5 -35 5 30 13 191 16 238 5 29 -8 34 -6 39 12 3 12 8 20 10 17 3 -2 2
-14 -2 -26z m-622 -47 c3 -5 -8 -8 -24 -9 -15 -1 -26 3 -23 7 6 11 41 12 47 2z
m-545 -137 c95 -26 372 -120 372 -127 0 -4 -65 15 -144 41 -79 27 -170 56
-202 66 -32 9 -65 19 -71 21 -7 3 -13 1 -13 -4 0 -6 24 -15 53 -22 30 -6 125
-36 213 -65 157 -53 159 -55 158 -83 -1 -15 -7 -40 -13 -56 -10 -25 -14 -27
-51 -21 -22 4 -40 3 -41 -2 0 -5 -6 -52 -12 -104 l-12 -95 -112 -38 c-61 -20
-132 -40 -156 -43 l-45 -6 -12 53 c-18 84 -23 256 -11 343 12 85 30 156 40
156 3 0 30 -7 59 -14z m2122 10 c0 -2 -34 -11 -75 -21 -41 -9 -134 -36 -207
-61 -72 -24 -134 -42 -136 -39 -3 3 -3 7 -1 8 7 6 251 86 309 101 53 14 110
20 110 12z m12 -51 c19 -70 27 -238 17 -338 -10 -102 -25 -167 -37 -167 -25 1
-155 37 -257 71 -191 64 -173 50 -163 122 4 34 8 99 9 143 l1 82 126 42 c140
47 259 80 281 77 8 -1 18 -15 23 -32z m-802 5 c0 -5 -7 -10 -15 -10 -8 0 -15
5 -15 10 0 6 7 10 15 10 8 0 15 -4 15 -10z m-413 -6 c-3 -3 -12 -4 -19 -1 -8
3 -5 6 6 6 11 1 17 -2 13 -5z m-8 -31 c0 -5 -4 -17 -9 -28 -8 -18 -9 -17 -9 8
-1 15 4 27 9 27 6 0 10 -3 9 -7z m551 -13 c-8 -5 -19 -10 -25 -10 -5 0 -3 5 5
10 8 5 20 10 25 10 6 0 3 -5 -5 -10z m110 -70 c-19 -12 -30 -12 -30 -1 0 10
31 20 40 14 2 -2 -2 -8 -10 -13z m-6 -47 c-11 -45 -24 -51 -24 -10 0 26 4 37
15 37 12 0 14 -7 9 -27z m-808 -603 c15 0 36 7 46 17 17 15 18 15 18 -2 0 -45
-79 -428 -107 -517 -14 -45 -16 -48 -41 -41 -112 28 -298 136 -406 234 l-29
27 29 35 c27 32 167 160 272 249 24 20 50 34 58 31 8 -3 20 0 28 6 7 6 21 9
30 5 9 -3 16 -2 16 4 0 6 13 -3 29 -19 18 -18 40 -29 57 -29z m963 -210 c36
-36 68 -64 73 -63 16 6 -7 -33 -35 -57 -95 -80 -238 -164 -346 -201 -81 -28
-86 -26 -105 34 -19 61 -76 332 -76 363 0 16 11 25 48 36 33 11 48 12 50 4 3
-12 66 -46 86 -46 22 0 53 34 72 77 l18 41 75 -61 c41 -34 104 -91 140 -127z
m-1304 125 c-22 -20 -73 -68 -112 -107 -40 -39 -73 -67 -73 -62 1 15 202 204
219 204 3 0 -12 -16 -34 -35z m1435 -114 c0 -5 -7 -12 -16 -15 -14 -5 -15 -4
-4 9 14 17 20 19 20 6z m-592 -346 c-12 -12 -136 -26 -241 -27 -75 0 -130 5
-167 15 -47 14 -49 15 -15 11 70 -8 349 -6 385 4 34 8 49 7 38 -3z"/>
<path d="M3280 4540 c-25 -9 -101 -39 -170 -65 -69 -26 -131 -52 -137 -58 -21
-16 -15 -71 16 -128 35 -66 68 -88 108 -73 41 15 324 204 330 220 3 7 -9 38
-27 69 -35 62 -45 65 -120 35z"/>
<path d="M2435 4308 c-100 -37 -166 -121 -173 -218 -2 -33 -1 -67 3 -77 7 -17
8 -17 15 2 4 11 3 28 -2 38 -15 29 22 115 74 171 53 56 61 59 180 60 74 0 91
-3 108 -19 11 -11 32 -31 46 -45 14 -14 38 -50 52 -80 29 -63 43 -51 17 16
-20 54 -69 105 -126 135 -50 25 -149 34 -194 17z"/>
<path d="M2472 4193 c-55 -11 -102 -86 -102 -161 0 -58 80 -122 152 -122 66 0
138 70 138 135 0 36 -30 104 -56 127 -20 17 -93 29 -132 21z m108 -28 c63 -32
85 -141 40 -191 -34 -37 -85 -57 -124 -48 -42 9 -92 47 -104 81 -14 42 9 122
44 150 34 27 100 31 144 8z"/>
<path d="M2746 4064 c-8 -21 13 -49 27 -35 10 10 0 51 -13 51 -4 0 -11 -7 -14
-16z"/>
<path d="M18343 3685 c-74 -31 -51 -145 30 -145 42 0 65 17 76 55 18 64 -43
116 -106 90z"/>
<path d="M9689 1938 c-19 -84 -16 -228 5 -307 10 -36 32 -92 49 -125 43 -83
43 -125 2 -206 -51 -100 -69 -179 -68 -300 1 -58 7 -127 15 -153 l13 -48 0
103 c0 57 6 128 14 158 17 73 90 222 140 288 l41 52 -41 53 c-50 65 -123 214
-140 287 -8 30 -14 101 -14 158 0 56 0 102 -1 102 -1 0 -8 -28 -15 -62z"/>
<path d="M10132 1778 c-33 -33 -3 -65 58 -64 28 1 36 5 38 23 6 39 -67 70 -96
41z"/>
<path d="M9466 1515 c-9 -26 -7 -32 5 -12 6 10 9 21 6 23 -2 3 -7 -2 -11 -11z"/>
<path d="M9439 1453 c-12 -31 -7 -109 9 -125 6 -6 6 6 -1 31 -8 29 -8 52 0 81
12 46 8 53 -8 13z"/>
<path d="M9570 1415 c-29 -35 43 -62 84 -32 17 13 17 14 1 30 -20 21 -68 22
-85 2z"/>
<path d="M10446 1423 c-3 -4 4 -13 16 -20 l23 -12 -23 -1 c-13 0 -20 -4 -17
-10 9 -15 61 -12 75 5 10 12 10 18 0 30 -13 15 -61 21 -74 8z"/>
<path d="M9460 1305 c0 -5 5 -17 10 -25 5 -8 10 -10 10 -5 0 6 -5 17 -10 25
-5 8 -10 11 -10 5z"/>
<path d="M10136 1078 c-19 -11 -21 -39 -4 -56 29 -29 102 2 96 41 -2 18 -10
22 -39 23 -20 1 -44 -3 -53 -8z"/>
<path d="M2480 2203 c0 -10 28 -13 107 -13 79 0 104 3 96 11 -17 17 -203 18
-203 2z"/>
<path d="M2275 2163 c-9 -7 -10 -23 -6 -69 1 -6 13 -11 29 -10 25 1 27 4 27
41 0 32 -4 40 -20 43 -11 1 -24 -1 -30 -5z m35 -17 c0 -11 -19 -15 -25 -6 -3
5 1 10 9 10 9 0 16 -2 16 -4z m10 -36 c0 -5 -9 -10 -20 -10 -11 0 -20 5 -20
10 0 6 9 10 20 10 11 0 20 -4 20 -10z"/>
<path d="M2410 2143 c0 -28 12 -63 20 -63 4 0 6 15 4 33 -1 17 -3 35 -3 40 -2
15 -21 6 -21 -10z"/>
<path d="M2455 2150 c-8 -13 3 -70 14 -70 9 0 8 66 -1 75 -3 4 -9 1 -13 -5z"/>
<path d="M2363 2142 c-18 -11 -21 -54 -4 -60 10 -3 12 0 8 12 -8 21 2 21 20
-1 12 -16 13 -14 11 16 -3 36 -14 46 -35 33z"/>
<path d="M2503 2143 c-18 -7 -16 -50 3 -57 9 -3 21 -3 27 1 7 4 3 9 -9 14 -17
7 -17 8 4 8 25 1 30 26 6 35 -9 3 -16 6 -17 5 -1 0 -8 -3 -14 -6z"/>
<path d="M2578 2143 c-12 -3 -18 -14 -18 -34 0 -18 4 -28 10 -24 6 3 10 15 10
26 0 27 25 24 38 -6 7 -15 8 -25 2 -25 -6 0 -10 -4 -10 -10 0 -20 20 -9 35 20
19 37 19 62 0 36 -8 -11 -15 -15 -15 -8 0 15 -31 30 -52 25z"/>
<path d="M2143 2033 c26 -2 68 -2 95 0 26 2 4 3 -48 3 -52 0 -74 -1 -47 -3z"/>
<path d="M2640 1950 c0 -5 18 -10 40 -10 22 0 40 5 40 10 0 6 -18 10 -40 10
-22 0 -40 -4 -40 -10z"/>
<path d="M11113 1928 c-18 -23 -33 -80 -33 -124 0 -35 -4 -44 -17 -44 -14 0
-13 -3 5 -20 23 -22 29 -40 12 -40 -5 0 -10 4 -10 10 0 18 -34 27 -67 18 -66
-18 -45 -88 27 -88 20 0 41 5 46 10 8 8 15 6 25 -6 12 -15 12 -16 -8 -10 -18
6 -20 4 -16 -14 6 -24 16 -25 33 -5 7 8 9 24 5 37 -4 13 -4 20 0 16 11 -11 43
29 50 63 4 16 11 29 16 29 16 0 9 69 -12 115 -26 54 -42 70 -56 53z"/>
<path d="M11213 1692 c4 -18 3 -42 -2 -55 -4 -12 -11 -44 -15 -72 l-6 -50 19
45 c22 50 27 145 9 156 -8 5 -9 -2 -5 -24z"/>
<path d="M11196 1235 c4 -27 11 -60 15 -72 5 -13 6 -37 2 -55 -4 -22 -3 -29 5
-24 18 11 13 106 -9 156 l-19 45 6 -50z"/>
<path d="M11077 1180 c-4 -18 -2 -20 16 -14 20 6 20 5 8 -10 -10 -12 -17 -14
-25 -6 -5 5 -26 10 -46 10 -72 0 -93 -70 -27 -88 33 -9 67 0 67 18 0 6 5 10
10 10 17 0 11 -18 -12 -40 -18 -17 -19 -20 -5 -20 13 0 17 -9 17 -44 0 -44 15
-101 33 -124 14 -17 30 -1 56 53 21 46 28 115 12 115 -5 0 -12 13 -16 29 -7
34 -39 74 -50 63 -4 -4 -4 3 0 16 4 13 2 29 -5 37 -17 20 -27 19 -33 -5z"/>
<path d="M16670 1540 c-25 -25 -26 -80 -1 -111 27 -34 86 -32 117 5 31 35 30
70 -1 101 -31 32 -86 34 -115 5z"/>
<path d="M16666 1368 c-22 -31 -20 -84 4 -108 29 -29 84 -27 115 5 30 30 32
64 4 99 -28 35 -100 38 -123 4z"/>
<path d="M2640 850 c0 -5 18 -10 40 -10 22 0 40 5 40 10 0 6 -18 10 -40 10
-22 0 -40 -4 -40 -10z"/>
<path d="M2143 763 c26 -2 68 -2 95 0 26 2 4 3 -48 3 -52 0 -74 -1 -47 -3z"/>
<path d="M2610 730 c0 -5 4 -10 10 -10 6 0 5 -10 -2 -25 -13 -30 -38 -33 -38
-6 0 11 -4 23 -10 26 -6 4 -10 -6 -10 -23 0 -37 33 -49 60 -22 17 17 19 17 25
2 5 -11 9 -13 12 -5 5 15 -24 73 -37 73 -6 0 -10 -4 -10 -10z"/>
<path d="M2269 711 c-7 -54 -3 -72 18 -77 32 -9 42 2 40 44 -2 33 -5 37 -29
38 -16 1 -28 -2 -29 -5z m51 -21 c0 -5 -9 -10 -20 -10 -11 0 -20 5 -20 10 0 6
9 10 20 10 11 0 20 -4 20 -10z m-15 -30 c3 -5 -1 -10 -10 -10 -9 0 -13 5 -10
10 3 6 8 10 10 10 2 0 7 -4 10 -10z"/>
<path d="M2346 712 c-15 -25 21 -71 45 -56 12 7 11 54 -1 54 -5 0 -10 -4 -10
-10 0 -5 -4 -10 -10 -10 -5 0 -7 7 -4 15 6 16 -11 21 -20 7z"/>
<path d="M2414 685 c-6 -34 -1 -55 12 -43 9 10 13 78 3 78 -4 0 -11 -16 -15
-35z"/>
<path d="M2455 689 c-4 -18 -3 -35 4 -42 13 -13 12 -14 15 36 3 45 -10 49 -19
6z"/>
<path d="M2503 713 c-18 -7 -16 -50 2 -57 21 -8 45 3 45 20 0 8 -10 15 -22 15
-18 1 -19 2 -5 6 9 2 15 9 12 14 -7 10 -13 10 -32 2z"/>
<path d="M2480 598 c0 -17 186 -16 203 1 8 8 -17 11 -96 11 -79 0 -107 -3
-107 -12z"/>
<path d="M248 2826 c-42 -18 -83 -40 -91 -48 -8 -8 -28 -25 -43 -39 -45 -37
-90 -134 -103 -220 -22 -142 16 -282 104 -377 111 -122 291 -166 448 -109 69
25 68 25 139 87 105 93 154 263 112 396 -23 77 -62 154 -80 161 -8 3 -14 10
-14 17 -1 14 -49 61 -72 69 -11 4 -15 12 -12 22 5 12 -3 15 -37 16 -24 1 -36
3 -26 6 32 8 17 21 -48 37 -106 27 -187 21 -277 -18z m72 -77 c-6 -11 -19 -23
-28 -26 -9 -4 -19 -9 -22 -12 -9 -11 -63 -32 -68 -26 -3 3 0 5 7 5 7 0 11 7 8
14 -4 10 -1 13 7 10 7 -3 20 1 28 9 11 12 66 45 76 47 1 0 -2 -9 -8 -21z m245
-49 c57 -28 118 -89 147 -149 19 -37 23 -63 23 -131 0 -73 -4 -93 -28 -142
-89 -181 -317 -234 -475 -108 -36 28 -60 58 -84 107 -29 60 -33 77 -33 148 0
68 5 88 27 130 46 85 96 129 179 159 61 23 183 16 244 -14z"/>
<path d="M305 2676 c-150 -71 -208 -238 -136 -388 49 -104 144 -162 263 -161
162 1 281 122 282 289 1 59 -4 80 -29 129 -34 66 -101 125 -165 144 -65 19
-159 14 -215 -13z m173 -222 c37 -26 22 -116 -19 -113 -9 0 -10 2 -2 5 7 3 9
13 6 22 -4 13 -3 14 5 4 7 -11 10 -11 15 2 4 9 2 16 -3 16 -6 0 -10 8 -11 18
0 13 -2 12 -9 -5 -5 -13 -16 -23 -25 -23 -9 0 -20 10 -26 23 -9 21 -9 20 -6
-5 3 -16 0 -28 -5 -28 -5 0 -7 -4 -3 -10 3 -5 12 -7 19 -4 7 3 16 -2 19 -10 8
-19 3 -20 -26 -5 -29 16 -37 28 -37 63 0 58 58 85 108 50z m-108 -145 c-7 -11
-14 -18 -17 -15 -3 3 0 12 7 21 18 21 23 19 10 -6z m26 -26 c-11 -11 -17 4 -9
23 7 18 8 18 11 1 2 -10 1 -21 -2 -24z m81 5 c-3 -8 -6 -5 -6 6 -1 11 2 17 5
13 3 -3 4 -12 1 -19z m-27 -1 c0 -7 -9 -13 -20 -14 -11 -1 -20 4 -20 13 0 8 9
14 20 14 11 0 20 -6 20 -13z"/>
<path d="M12780 2724 c-56 -26 -90 -51 -90 -65 0 -5 20 7 45 26 25 19 62 39
83 45 52 14 142 12 177 -5 23 -11 24 -13 5 -7 -14 4 -61 7 -105 7 -70 0 -86
-4 -127 -29 -152 -90 -188 -289 -76 -421 44 -52 112 -79 198 -79 112 -1 191
46 245 146 25 45 29 64 29 126 0 51 3 66 9 50 5 -13 6 -47 3 -76 -21 -185
-192 -299 -372 -247 -120 34 -206 169 -188 293 7 49 35 114 62 145 8 9 12 17
7 17 -12 0 -34 -31 -57 -80 -30 -65 -29 -168 2 -238 58 -132 218 -196 366
-145 71 24 154 110 177 184 34 110 15 204 -56 285 -83 95 -220 122 -337 68z
m301 -50 c9 -11 2 -9 -18 6 -18 13 -33 25 -33 27 0 8 38 -17 51 -33z m69 -88
c0 -11 0 -11 -29 34 l-23 35 26 -30 c14 -16 26 -34 26 -39z"/>
<path d="M13123 1393 c9 -2 25 -2 35 0 9 3 1 5 -18 5 -19 0 -27 -2 -17 -5z"/>
<path d="M279 770 c-197 -78 -302 -271 -268 -489 13 -83 58 -182 99 -217 14
-12 36 -31 49 -43 23 -20 35 -21 254 -21 202 0 228 2 223 15 -3 10 1 18 12 22
23 8 71 55 72 69 0 7 6 14 14 17 18 7 57 84 80 161 42 133 -7 303 -112 396
-71 62 -70 62 -139 87 -81 29 -214 31 -284 3z m279 -99 c65 -33 118 -87 149
-149 24 -49 28 -69 28 -142 0 -99 -21 -152 -85 -218 -65 -66 -119 -87 -225
-87 -104 0 -165 23 -224 85 -62 65 -86 125 -86 215 0 71 4 88 33 147 39 79 97
132 175 160 69 25 175 20 235 -11z m-272 -588 c14 -9 29 -24 35 -35 10 -19 9
-19 -22 -2 -18 9 -39 23 -47 30 -7 8 -20 14 -28 14 -8 0 -14 5 -14 11 0 14 43
4 76 -18z"/>
<path d="M367 670 c-94 -24 -159 -75 -198 -158 -25 -51 -31 -78 -31 -127 -1
-157 125 -285 281 -285 83 0 128 14 187 59 133 101 147 299 30 429 -61 67
-181 103 -269 82z m83 -157 c0 -7 -9 -13 -20 -13 -11 0 -20 6 -20 14 0 9 9 14
20 13 11 -1 20 -7 20 -14z m-50 -15 c0 -19 -2 -20 -10 -8 -13 19 -13 30 0 30
6 0 10 -10 10 -22z m77 0 c-3 -8 -6 -5 -6 6 -1 11 2 17 5 13 3 -3 4 -12 1 -19z
m-106 -10 c11 -21 11 -22 -4 -9 -10 7 -17 17 -17 22 0 15 9 10 21 -13z m62
-34 c-3 -8 -12 -13 -19 -10 -7 3 -16 1 -19 -4 -4 -6 -2 -10 3 -10 5 0 8 -12 5
-27 -3 -26 -3 -27 6 -5 6 12 17 22 26 22 9 0 20 -10 25 -22 7 -18 9 -19 9 -5
1 9 5 17 11 17 5 0 7 7 3 16 -5 13 -8 13 -15 2 -7 -10 -8 -9 -4 5 3 10 0 17
-7 18 -8 0 -8 2 1 6 39 16 57 -85 20 -111 -49 -35 -108 -8 -108 48 0 36 7 48
35 64 28 16 35 15 28 -4z"/>
<path d="M12783 614 c-61 -22 -126 -84 -153 -146 -31 -70 -32 -173 -2 -238 23
-49 45 -80 57 -80 5 0 1 8 -7 18 -27 30 -55 95 -62 144 -18 124 68 259 188
293 180 52 351 -62 372 -247 3 -29 2 -63 -3 -76 -6 -16 -9 -2 -9 50 0 116 -49
193 -158 251 -60 32 -173 30 -240 -3 -89 -45 -138 -130 -138 -236 1 -104 49
-186 140 -240 41 -25 57 -29 127 -29 44 0 91 3 105 7 19 6 18 4 -5 -7 -35 -17
-125 -19 -177 -5 -21 6 -58 26 -83 45 -25 19 -45 30 -45 25 0 -6 21 -24 47
-40 130 -82 285 -64 380 44 71 81 90 175 56 285 -23 74 -106 160 -177 184 -60
21 -156 21 -213 1z m347 -433 c-29 -42 -36 -39 -8 3 13 19 24 33 26 31 3 -2
-6 -18 -18 -34z m-50 -57 c-8 -8 -23 -20 -34 -25 -13 -7 -9 -1 9 15 34 29 43
33 25 10z"/>
<path d="M14545 230 c-106 -8 -222 -34 -330 -75 -76 -28 -228 -106 -265 -135
l-25 -20 35 0 c25 0 66 17 133 54 361 199 812 193 1169 -16 49 -29 75 -39 100
-36 l33 3 -50 32 c-232 148 -512 215 -800 193z"/>
<path d="M14540 134 c-114 -17 -177 -31 -250 -56 -96 -34 -184 -77 -158 -78 9
0 19 4 22 8 3 5 36 20 73 34 115 44 110 44 124 -2 l12 -40 287 0 287 0 13 40
c8 26 19 40 30 40 23 0 117 -33 169 -59 23 -12 48 -20 54 -18 14 4 -138 68
-217 91 -133 39 -330 56 -446 40z m181 -34 c139 -10 179 -17 179 -32 0 -5 -4
-7 -8 -4 -26 16 -181 25 -307 17 -77 -5 -141 -8 -143 -6 -1 1 30 9 70 17 40 8
75 16 78 16 3 1 62 -3 131 -8z"/>
<path d="M16645 97 c-43 -14 -83 -37 -128 -74 l-29 -23 274 0 273 1 -30 25
c-65 53 -134 77 -230 81 -56 2 -105 -2 -130 -10z"/>
<path d="M7356 15 c-19 -15 -19 -15 2 -15 13 0 22 6 22 15 0 18 0 18 -24 0z"/>
</g>
</svg>
